<svg id="Layer_1" height="512" viewBox="0 0 66 66" width="512" xmlns="http://www.w3.org/2000/svg"><g><path d="m59.5 30.9c3.4-5.1 2.3-13.7 2.3-14 0-.2-.1-.4-.3-.6-5-4.8-9.8-4.7-11.8-4.4-.7-1.9-2.9-5.5-9.3-6.5-3-.5-5.5.3-7.4 2.6-7.5-4.5-15.9-.2-17 6-2.7.4-11.9 2.2-14.8 7.3-.2.3-.2.5-.2.7.1 1.3 1.4 11.6 6.2 14.7-3 4.2-5.3 10.8-1.7 19.4.1.1.1.2.2.3.3.3 4.8 4.4 13.1 4.4 4.2 0 9.4-1.1 15.4-4.1 7.5 5.1 21 1.1 28.7-2.9.2-.1.4-.3.5-.6 2.4-8.2 2.7-17.1-3.9-22.3zm-19.4-23.6c9 1.4 6.9 7.2 9.2 6.6.2-.1 5.3-1.5 10.6 3.5.2 1.6.6 8.4-2 12.4-2.1-1.3-4.1-1.8-5.1-1.9-.5-1.3-1.4-2.3-2.7-2.9 3.5-9.5-4.8-15.4-9.9-8.8-1.7-2.3-2.8-3.9-7.2-3.8 1-3.7 3.4-5.7 7.1-5.1zm-24.4 22.5c2.1 4.9 6.9 7.7 10.6 7.8 3 .1 5.9.6 7.3.7.2 4.9-2 8.6-6.9 9.3-5.2-1.9-16.8-10.9-11-17.8zm7.6-2.8c1.2 1.5 3.2 2.4 5.8 2.6 2.5.2 6.4-3.1 7.3-6.1.6-1.9-.1-3.6-1.8-4.7-1.4-.8-2.8-1-4-.4-2.5 1.1-3.4 4.5-3.5 4.9-.1.5.2 1 .7 1.2.5.1 1-.2 1.2-.7.2-.8 1-3 2.4-3.6.7-.3 1.4-.2 2.3.3 1 .6 1.3 1.3.9 2.4-.8 2.4-4 4.8-5.3 4.7-2.1-.2-3.6-.8-4.5-1.9-1-1.2-1.3-3.1-.9-5.5.9-6.1 11.2-7.3 13.3-4.7 2 2.5 4.5 5.5 4 8.8-.7 5.5-11.2 11.5-18 4.9-.9-.9-2.3.5-1.4 1.4.1.1 3.6 3.4 8.8 3.4 6.2 0 16.7-6.4 10.7-16.2 1.7-2.6 3.7-3.5 6-1.5 5.7 4.9-4.9 21-14.4 20-2.3-.3-4.5-.5-6.6-.6-4.1-.2-9.8-4.1-9.8-10.9 0-4.2 1.6-6.6 5.7-5.9-.7 2.3-.6 5.9 1.1 8.1zm7.4 21.3c3.6-2 5-6 4.9-10.1 5.6-.9 11-6 13.7-11.5 6.8 3.1-5.4 22-18.6 21.6zm1.2-38.7c-.6 1.1-.9 2.2-1 2.8-3.1.5-6.1 1.9-7.8 4.6-1.2-.3-3.5-.6-5.4.6-.2-2.8.1-2.3 0-2.8.8-5.2 7.7-8.9 14.2-5.2zm-28.9 12.5c2.5-3.9 9.9-5.5 12.8-6 0 1 .1 2.1.2 3.2-1.5 2.2-1.6 5.8-1 8.4-.6.6-1.7 1.8-2.4 3.5-.7.5-2.5 1.8-4.3 3.9-3.3-1.9-4.9-9.6-5.3-13zm4.1 33c-3.4-8.3-.8-14.3 2.1-18 .1-.1.2-.2.2-.3.9-1.2 1.9-2.1 2.7-2.8 0 5.6 5.5 10.4 10.2 13.5 2.2 1.5 4.6 2.4 7.2 2.6.7 2 1.7 3.7 3.1 5.1-15.5 7.6-24.2 1-25.5-.1zm54.6-2.9c-10.4 5-25.7 8.8-30.1-1.9 10.8-.3 21.7-12.4 21.5-20.3 10.1 2.5 11.5 12.1 8.6 22.2z"/></g></svg>