<svg enable-background="new 0 0 512 512" height="512" viewBox="0 0 512 512" width="512" xmlns="http://www.w3.org/2000/svg"><g id="_x36_3_money_waste"><g><g><path d="m447.151 265.242h-59.961c4.463-14.494 6.253-29.368 5.068-44.87-3.895-50.897-28.387-86.545-56.841-119.603-4.977-5.746-14.415-1.764-13.766 5.79.015.261 1.196 14.203 2.155 29.18-4.701-9.157-9.893-18.321-15.069-24.187-13.114-14.877-19.509-30.483-19.563-47.708-.046-14.157 6.365-49.51 6.426-49.863 1.222-6.679-6.075-11.68-11.879-8.075-48.052 29.994-88.104 66.628-97.421 123.951-1.139-4.594-2.147-9.18-2.834-12.646-1.322-6.712-10.095-8.678-14.103-3.029-1.415 1.986-34.713 48.988-42.83 75.837-8.129 26.877-9.233 51.998-3.462 75.223h-58.222c-15.257 0-27.669 12.416-27.669 27.669v186.72c0 15.253 12.412 27.669 27.669 27.669h382.301c15.253 0 27.669-12.416 27.669-27.669v-186.72c.001-15.253-12.415-27.669-27.668-27.669zm-305.587-70.676c4.77-15.775 20.211-40.76 30.614-56.58 1.626 6.028 3.574 12.163 5.56 15.897 4.804 9.312 8.697 9.986 9.663 10.368 5.23 2.07 13.307-1.892 12.757-13.16.718-42.485 21.251-85.331 77.052-122.294-1.802 11.718-3.765 26.465-3.742 35.092.061 20.905 7.968 40.438 23.49 58.045 13.004 14.769 23.898 50.721 33.191 54.096 4.937 1.833 10.285-1.719 10.529-7.009.376-7.96-.529-24.594-1.495-38.889 23.37 29.876 35.216 62.682 37.416 91.435 1.149 15.083-.888 29.552-5.951 43.674h-53.537c-2.185-5.892-5.124-11.313-9.047-16.058-16.289-19.686-30.537-39.602-26.005-66.811 1.132-6.772-6.394-11.613-12.071-7.845-25.027 16.511-40.472 39.042-45.905 66.956-1.264 6.49-2.519 14.705-2.662 23.758-25.414 0-55.652 0-82.195 0-6.217-21.504-5.449-44.929 2.338-70.675zm95.651 70.676c.096-6.29.784-13.062 2.28-20.752 3.639-18.704 12.243-34.134 26.151-46.81 1.695 24.686 15.706 43.866 30.315 61.511 1.529 1.852 2.762 3.932 3.939 6.051zm221.899 214.389c0 6.595-5.368 11.963-11.963 11.963h-382.302c-6.595 0-11.963-5.368-11.963-11.963v-186.72c0-6.595 5.368-11.963 11.963-11.963h382.301c6.595 0 11.963 5.368 11.963 11.963v186.72z"/><path d="m256.086 301.224c-38.079 0-69.061 38.152-69.061 85.047 0 46.887 30.982 85.039 69.061 85.039 37.98 0 68.885-38.152 68.885-85.039 0-46.895-30.905-85.047-68.885-85.047zm0 154.381c-29.421 0-53.356-31.105-53.356-69.334 0-38.237 23.934-69.341 53.356-69.341 29.322 0 53.179 31.105 53.179 69.341.001 38.229-23.857 69.334-53.179 69.334z"/><path d="m254.714 363.909h17.673c4.341 0 7.853-3.512 7.853-7.853s-3.512-7.853-7.853-7.853h-8.512v-2.715c0-4.341-3.516-7.853-7.853-7.853s-7.853 3.512-7.853 7.853v3.781c-9.459 2.838-16.415 11.522-16.415 21.894 0 12.661 10.299 22.96 22.96 22.96h2.569c3.999 0 7.251 3.252 7.251 7.255 0 3.995-3.252 7.247-7.251 7.247h-17.677c-4.337 0-7.853 3.512-7.853 7.853s3.516 7.853 7.853 7.853h8.562v2.722c0 4.341 3.516 7.853 7.853 7.853s7.853-3.512 7.853-7.853v-3.803c9.433-2.854 16.365-11.524 16.365-21.872 0-12.661-10.299-22.96-22.957-22.96-.787 0-3.356 0-2.569 0-3.999 0-7.255-3.252-7.255-7.255s3.256-7.254 7.256-7.254z"/><path d="m113.354 354.905c-17.262 0-31.308 14.095-31.308 31.427 0 17.262 14.045 31.304 31.308 31.304 17.328 0 31.427-14.042 31.427-31.304 0-17.331-14.099-31.427-31.427-31.427zm0 47.026c-8.604 0-15.602-6.994-15.602-15.598 0-8.666 6.998-15.721 15.602-15.721 8.67 0 15.721 7.055 15.721 15.721.001 8.604-7.051 15.598-15.721 15.598z"/><path d="m398.523 354.905c-17.262 0-31.312 14.095-31.312 31.427 0 17.262 14.049 31.304 31.312 31.304 17.331 0 31.427-14.042 31.427-31.304 0-17.331-14.096-31.427-31.427-31.427zm0 47.026c-8.604 0-15.606-6.994-15.606-15.598 0-8.666 7.002-15.721 15.606-15.721 8.666 0 15.721 7.055 15.721 15.721 0 8.604-7.055 15.598-15.721 15.598z"/></g></g></g></svg>