<svg height="512" viewBox="0 0 267.34 264.45" width="512" xmlns="http://www.w3.org/2000/svg"><g id="Layer_2" data-name="Layer 2"><g id="Layer_1-2" data-name="Layer 1"><g id="Destination" fill="rgb(0,0,0)"><path d="m234.85 97.61a4.16 4.16 0 0 0 -4-3.37h-135.33c9.69-16 19.06-35.58 19.06-51.44a42.83 42.83 0 0 0 -85.65 0c0 15.86 9.38 35.45 19 51.44h-11.48a4.15 4.15 0 0 0 -4 3.37l-32.37 161.91a4 4 0 0 0 .85 3.36 4 4 0 0 0 3.12 1.57h259.22a4.2 4.2 0 0 0 4-4.93zm7.27 77.77h-46.34l-3.37-32.46h43.21zm-8.12-40.63h-42.43l-3.3-32.34h39.24zm-50.54 0h-45.74v-32.34h42.43zm-111.67-126.7a34.8 34.8 0 0 1 34.68 34.75c0 24-25.61 60.09-34.68 72-9.08-11.91-34.79-47.96-34.79-72a34.8 34.8 0 0 1 34.79-34.75zm-14.19 117.44c0-2.52 2.64-5.28 6.92-6.84 3.82 4.5 3.4 6.39 7.27 6.84 3.81-.48 3.37-2.37 7.26-6.84 12.68 4.88 6 14.89-7.26 15-8.36.01-14.19-4.31-14.19-8.16zm-42.14 98.45h51.1l-3.37 32.33h-54.19zm114.15 32.33h-58.3l3.36-32.33h54.94zm8.11 0v-36.42a4.13 4.13 0 0 0 -4.09-4.08h-58.12l1.49-13.94a4 4 0 0 0 -3.61-4.33 3.89 3.89 0 0 0 -4.49 3.5l-1.57 14.79h-50.24l6.5-32.34h21a4.09 4.09 0 0 0 4.09-4.09 4 4 0 0 0 -4.09-4h-19.39l14.61-73h13.28c2.29 3.5 4.51 6.73 6.49 9.63-14 6-13 22.27 1.21 27.52-3.73 7.21-9.86 21.52-6.26 33.42 2 6.73 6.61 11.66 13.72 14.91 15.32 6.61 26.08.35 34.79-4.69 8-4.69 13.28-7.34 20.37-4.34 8.84 3.86 10.47 9.51 12.33 16.12 3.71 19.28 22.49 26.69 41.17 17.07 9.74-4 17.6-7.21 28.48 3.84-19.2 9.18-8.61 30.28 12.14 29.81 32.61-1.18 27.24-35.36-3.36-32.21-25.26-28.7-38.16-1.61-58.36-5.9-18.91-6.15-6.08-26.49-29.15-36.17-23-9.47-32.3 19.12-55.18 9-17.22-6.4-7.6-30.7-2.52-39 21.07 3 36-19.2 15-29.44 2-2.9 4.21-6.13 6.55-9.63h39.13v32.34h-29a4.09 4.09 0 0 0 0 8.17h29v18.99a4.06 4.06 0 1 0 8.11 0v-18.88h46.55l3.37 32.46h-35.46a3.94 3.94 0 0 0 -4 4 4 4 0 0 0 4 4.09h36.23l.73 7a4.08 4.08 0 0 0 4 3.61c5.86-.27 3.58-6.91 3.43-10.59h47.12l14.55 72.84zm79.81-35c18.66.63 18.76 15.67 0 16.23-18.75-.5-18.64-15.57 0-16.2z"/><path d="m78.52 146.9a4 4 0 0 0 -4.39 3.6l-2 19.35a4 4 0 0 0 3.6 4.45c2.09.57 4.3-1.53 4.45-3.61l2-19.35a4.08 4.08 0 0 0 -3.66-4.44z"/><path d="m91.26 43.16c-.61-25.72-38.37-25.66-39 0 .74 25.64 38.32 25.69 39 0zm-19.47 11.42c-15.06-.42-15.06-22.43 0-22.85 15.03.46 15.03 22.39 0 22.85z"/></g></g></g></svg>