<svg id="outline" height="512" viewBox="0 0 340 340" width="512" xmlns="http://www.w3.org/2000/svg"><path d="m329.669 73.009c-2.721-16.756-12.056-38.827-41.082-48.825-44.423-15.3-73.463 8.218-74.672 9.221-25.41 21.015-43.4 31.9-54.023 37.33a28.309 28.309 0 0 1 -18.235 2.435c-27.58-5.37-42.444 12.304-47.557 20.151a83.715 83.715 0 0 1 -5.659 7.657c-2.928 3.536-4.856 5.981-5.957 7.41a12.575 12.575 0 0 0 -2.522 5.927c-.025.181-.048.359-.067.532a13.4 13.4 0 0 0 3.541 10.225c5.964 6.956 32.83 2.831 38.591 3.01a26.873 26.873 0 0 0 16.123-4.641 41.259 41.259 0 0 0 12.65-14.257c11.415-4.448 31.745-15.028 32.714-15.535 14.534-8.074 32.355-22.355 34.538-24.117 26.8-15.992 47.571-16.118 59.634-10.34a20.441 20.441 0 0 1 7.639 15.157 21.637 21.637 0 0 1 -8.336 17.514c-2.83 2.261-5.521 4.5-8 6.643a30.858 30.858 0 0 1 -20.915 7.552c-7.918-.168-18.782-.138-30.371.658h-.01c-4.17.287-8.432.67-12.687 1.183a118.8 118.8 0 0 0 -59.594 24.781q-6.873 5.444-13.06 11.343l-.008.008a173.244 173.244 0 0 0 -12.258 12.909 111.834 111.834 0 0 1 -42.646 30.76c-12.134 4.949-26.833 12.549-39.3 23.631a3.47 3.47 0 0 0 -.354.318 83.784 83.784 0 0 0 -18.2 22.729 94.982 94.982 0 0 0 -6.384 14.739c-.011.034-.023.067-.034.1a75.984 75.984 0 0 0 -3.858 19.9 49.779 49.779 0 0 0 13.871 37.147 47.55 47.55 0 0 0 34.478 14.712q.492 0 .986-.01c11.372-.227 22.7-3.677 33.66-10.254a3.428 3.428 0 0 0 -2.054-6.355c-.177.017-18.076 1.448-32.325-5.225a26.525 26.525 0 0 1 -9.326-40.51c1.977-1.365 14.336-9.256 33.566-7.563a95.132 95.132 0 0 0 10.3.355 94.892 94.892 0 0 0 -1.73 24.97c0 .054.007.107.011.161.007.07.547 7.124-3.38 11.465a3.427 3.427 0 0 0 2.541 5.727 3.364 3.364 0 0 0 .435-.027 46.431 46.431 0 0 0 16.411-6.07 3.428 3.428 0 1 0 -3.537-5.873 40.416 40.416 0 0 1 -6.625 3.19 26.776 26.776 0 0 0 .99-8.954c-.455-9.825.245-18.215 2.051-25.01a86.24 86.24 0 0 0 12.15-2.063c-1.152 6-1.021 13.6 2.232 22.673a18.786 18.786 0 0 1 .206 11.741c-2.433 7.976-3.208 20.429 6.91 34.456a3.429 3.429 0 0 0 6.028-.91c.06-.178 6.141-17.912 17.1-28.355 11.331-10.793 17.681-26.435 18.541-44.089 20.169-3.025 38.173-10.123 49.8-15.6 1.343-.634 2.725-1.257 4.105-1.855a3.428 3.428 0 1 0 -2.724-6.292c-1.447.627-2.895 1.281-4.3 1.946-11 5.183-27.91 11.866-46.829 14.855a95.41 95.41 0 0 0 -1.643-14.8c12.444-3.6 23.059-8.359 31.578-14.163 17.035-11.6 30-16.435 44.586-16.611a69.027 69.027 0 0 0 -5.628 15.59 50.807 50.807 0 0 1 -9.132 19.381c-5.273 6.9-9.114 15.954-11.415 26.9-.02.093-.036.188-.048.284-.313 2.535-1.9 9.975-5.448 13.892a3.429 3.429 0 0 0 2.541 5.729 3.381 3.381 0 0 0 .7-.072c1.85-.384 45.542-9.812 65.929-45.907 6.819-12.072 10.158-25.641 10.029-40.579.012-.014.027-.023.039-.037 2.987-3.587 6.591-8.021 10.41-12.947a92.407 92.407 0 0 1 -10.075 53.874 152.256 152.256 0 0 0 -12.858 33.58 19.194 19.194 0 0 1 -6.013-7.549 3.428 3.428 0 0 0 -6.217 2.891c4.863 10.458 13.311 12.953 13.668 13.055a3.431 3.431 0 0 0 4.293-2.614 141.086 141.086 0 0 1 13.22-36.219c14.149-27.416 12.247-51.974 9.7-64.573 8.982-12.159 18.078-26.012 22.565-37.443a81.993 81.993 0 0 0 4.877-20.837c.065-.588.115-1.175.165-1.762a92.051 92.051 0 0 0 .994-33.554zm-115.988-8.759c-2.315 1.862-19.763 15.778-33.414 23.363-.189.1-16.157 8.408-27.533 13.349a42.816 42.816 0 0 0 -.234-7.589 3.428 3.428 0 0 0 -6.793.932c.009.064.845 6.441-.6 10.939a34.2 34.2 0 0 1 -10.865 12.565 20.054 20.054 0 0 1 -12 3.421 233.429 233.429 0 0 0 -29.012.8 6.026 6.026 0 0 1 -4.908-1.766 5.607 5.607 0 0 1 -1.613-4.644l.046-.361a5.714 5.714 0 0 1 1.159-2.679c1.069-1.387 2.945-3.766 5.81-7.226a90.681 90.681 0 0 0 6.124-8.288c4.351-6.684 17.01-21.737 40.5-17.163a35.2 35.2 0 0 0 22.667-3.06c10.924-5.591 29.385-16.743 55.275-38.159.267-.223 27.248-22.08 68.065-8.017 19.913 6.858 32.02 20.639 36.066 40.94a64.106 64.106 0 0 0 -22.57-25.971q-.793-.525-1.587-1.016c-23.624-14.637-48.393-12.392-71.632 6.489a107.261 107.261 0 0 0 -12.951 13.141zm-100.038 177.075a82.532 82.532 0 0 1 -30.874 2.905 64.147 64.147 0 0 0 -24.194 2.337c7.544-6.823 19.993-14.372 38.51-15.039 8.989-.324 17.5-.9 25.416-1.718a37.673 37.673 0 0 1 -2.685 2.93 28.6 28.6 0 0 0 -5.576 8.413c-.198.058-.399.113-.597.172zm155.278-17.025c-13.848 24.558-40.317 36-53.506 40.364a45.005 45.005 0 0 0 2.513-9.59c2.065-9.744 5.566-18.049 10.128-24.023a57.624 57.624 0 0 0 10.359-21.978c4.3-18.342 14.52-27.673 17.879-30.739a3.428 3.428 0 0 0 -4.622-5.064 66.6 66.6 0 0 0 -10.053 11.476 26.238 26.238 0 0 1 -3.73.3c-16.3.065-30.486 5.226-48.967 17.814-7.827 5.333-17.666 9.728-29.232 13.11-.423-1.634-.881-3.272-1.39-4.913a3.428 3.428 0 0 0 -6.548 2.033c8.694 28.006 4.012 55.01-12.22 70.474-7.873 7.5-13.328 17.948-16.281 24.632-4.807-9.374-4.129-17.42-2.47-22.859a25.684 25.684 0 0 0 -.311-16.056c-7.235-20.179 3.634-31.15 4.118-31.625 9.007-8.848 11.328-18.25 11.908-21.882a3.428 3.428 0 0 0 -6.77-1.081 29.532 29.532 0 0 1 -2.5 7.679c-9.239 1.128-19.45 1.9-30.392 2.3-36.416 1.313-51.642 26.273-53.46 29.5l-.111.135a33.383 33.383 0 0 0 11.755 51.027 67.245 67.245 0 0 0 21.08 5.509 56.236 56.236 0 0 1 -17.59 3.262 40.841 40.841 0 0 1 -30.4-12.614 42.908 42.908 0 0 1 -11.948-32.013 67.2 67.2 0 0 1 2.2-13.685 27.626 27.626 0 0 0 5.541 2.643 3.428 3.428 0 1 0 2.169-6.5 23.02 23.02 0 0 1 -5.564-2.918 89.756 89.756 0 0 1 5.133-11.407 74.76 74.76 0 0 1 13.575-17.9 42.373 42.373 0 0 0 6.9 9.944 3.428 3.428 0 0 0 4.848-4.848c-2.828-2.828-5.206-7.25-6.485-9.9a123.7 123.7 0 0 1 24.906-16.063 41.492 41.492 0 0 0 8.111 12.356 3.428 3.428 0 1 0 4.874-4.822 34.846 34.846 0 0 1 -6.776-10.438c1.51-.668 2.994-1.3 4.437-1.888a119 119 0 0 0 26.9-15.348 80.765 80.765 0 0 0 6.555 12.145 3.428 3.428 0 0 0 5.724-3.774 74.222 74.222 0 0 1 -6.718-12.853 116.9 116.9 0 0 0 12.819-12.826c2.288-2.679 4.707-5.308 7.224-7.891 1.658 6.878 5.181 18.017 12.032 27.326a3.428 3.428 0 0 0 5.522-4.065c-7.753-10.533-10.862-24.2-11.753-28.937q5.4-5.046 11.344-9.769a111.277 111.277 0 0 1 14.736-9.851c2.219 10.122 9.046 34.282 26.246 51.481a3.428 3.428 0 0 0 4.848-4.847c-16.915-16.915-23.16-42.051-24.764-49.917a112.364 112.364 0 0 1 35.09-10.216c2.818-.34 5.641-.62 8.438-.854a95.953 95.953 0 0 0 2.859 27.081 3.428 3.428 0 0 0 6.643-1.7 89.578 89.578 0 0 1 -2.606-25.868c10.21-.593 19.689-.6 26.769-.454a37.722 37.722 0 0 0 12.363-1.815 61.347 61.347 0 0 0 -3.569 11.9 3.428 3.428 0 0 0 2.7 4.029 3.482 3.482 0 0 0 .67.066 3.43 3.43 0 0 0 3.359-2.762c2.741-13.823 8.392-19.269 8.723-19.576q.662-.523 1.3-1.078c2.408-2.087 5.028-4.263 7.786-6.466a28.529 28.529 0 0 0 10.91-22.892 35.517 35.517 0 0 1 3.032 10.549c4.052 32.239-8.241 54.529-16.711 65.657-.465-1.449-.947-2.9-1.463-4.372a3.428 3.428 0 0 0 -6.469 2.272c10.481 29.825 9.926 55.352-1.647 75.873zm48.326-97.65c-6.154 15.678-21.75 36.551-32.943 50.406a126.057 126.057 0 0 0 -3.465-18.52c8.8-10.215 26.05-35.73 21.175-74.518-1.424-11.333-7.026-21.9-16.11-27.909-9.956-6.59-29-10.732-51.965-2 20.1-14.948 40.507-16.183 60.714-3.66.472.292.944.593 1.419.908 18.308 12.076 28.124 33.614 25.619 56.211a75.178 75.178 0 0 1 -4.444 19.086z"/><path d="m120.763 91.428-2.407 1.1a3.428 3.428 0 1 0 2.844 6.238l2.408-1.1a3.428 3.428 0 1 0 -2.845-6.238z"/><path d="m258.7 133.975a3.445 3.445 0 0 0 -3.539 3.313q-.02.608-.033 1.228a3.427 3.427 0 0 0 3.354 3.5h.075a3.427 3.427 0 0 0 3.425-3.354c.009-.387.019-.771.031-1.15a3.426 3.426 0 0 0 -3.313-3.537z"/><path d="m228.813 153.164a3.428 3.428 0 1 0 -6.169 2.99c.483 1 .987 1.982 1.5 2.928a3.428 3.428 0 0 0 6.032-3.258c-.465-.858-.923-1.753-1.363-2.66z"/><path d="m127.336 196.874a3.428 3.428 0 0 0 -5.55 4.025 6.974 6.974 0 0 0 1.105 1.2l.1.086a3.428 3.428 0 0 0 4.637-5.05z"/></svg>