<?xml version="1.0"?>
<svg xmlns="http://www.w3.org/2000/svg" id="outline" viewBox="0 0 340 340" width="512" height="512"><path d="M321.462,198.9a2.327,2.327,0,0,1-1.961,1.837,2.363,2.363,0,0,1-2.6-1.71c-1.887-6.3-5.346-10.943-10.283-13.809a3.485,3.485,0,0,0-4.382.673,3.431,3.431,0,0,0,.882,5.223c3.411,1.958,5.838,5.283,7.215,9.88a9.181,9.181,0,0,0,8.8,6.626,9.327,9.327,0,0,0,1.346-.1,9.188,9.188,0,0,0,7.7-7.3c.078-.4.154-.817.227-1.263a27.893,27.893,0,0,0-20.51-31.38c-.475-.128-.933-.261-1.382-.4a91.029,91.029,0,0,0,7.322-24.945c.059-.328.244-1.423.39-3.087,3.45-28.456,1.378-49.708-2.678-65.242l1.12-.266a3.484,3.484,0,0,0,2.727-3.435,3.432,3.432,0,0,0-4.222-3.256l-1.566.372a89.922,89.922,0,0,0-5.9-14.009l1.594-.714a3.485,3.485,0,0,0,2.036-3.887,3.432,3.432,0,0,0-4.756-2.407l-2.389,1.07a48.546,48.546,0,0,0-8.115-9.669c-4.767-17.317-15.364-26.612-15.822-27.006a3.428,3.428,0,0,0-4.275-.162,3.618,3.618,0,0,0-1.189,1.6c-1.479,3.679-2.784,7.7-3.846,11.324a52.6,52.6,0,0,0-16.088-9.593,3.429,3.429,0,0,0-4.458,2.647,69.7,69.7,0,0,0-.852,15.859c-11.181.511-19.57,3.784-24.985,9.8-8.046,8.937-6.356,20.5-6.143,21.753h0a21.806,21.806,0,0,0,2.047,6.778,3.429,3.429,0,0,0,4.981,1.449,3.517,3.517,0,0,0,1.2-4.416c-.161-.354-.3-.671-.428-.976a43.69,43.69,0,0,1,7.538,1.341l.774,3.965a3.427,3.427,0,0,0,4.534,2.566,3.549,3.549,0,0,0,2.164-4.044l-.159-.812a60.556,60.556,0,0,0,14.559-.105,19.188,19.188,0,0,1-4.437,5.452l-.253-.59a3.484,3.484,0,0,0-3.854-2.094,3.432,3.432,0,0,0-2.481,4.719l.81,1.885a47.521,47.521,0,0,1-5.828,2.611l-.724-1.758a3.483,3.483,0,0,0-3.82-2.154,3.431,3.431,0,0,0-2.554,4.68l.525,1.274c-1.429.364-2.712.644-3.775.854l-.8-.476-.276-.861a3.482,3.482,0,0,0-3.629-2.454,3.433,3.433,0,0,0-2.93,4.452l.032.1a29.409,29.409,0,0,0,1.821,4.768h0l0,0c3.13,5.948,7.6,9.753,13.28,11.309a22.388,22.388,0,0,0,5.932.768c9.033,0,17-4.824,17.438-5.095a21.8,21.8,0,0,1,8.4-3.373,36.1,36.1,0,0,1,.749,6.306,35.743,35.743,0,0,1-3.832,9.164,11.078,11.078,0,0,1-9.611,5.2c-.258,0-.525,0-.8,0v-1.988a3.483,3.483,0,0,0-2.713-3.445,3.432,3.432,0,0,0-4.143,3.355v2.465a81.115,81.115,0,0,0-14.2,2.877l-.5-1.85a3.557,3.557,0,0,0-4.081-2.636,3.428,3.428,0,0,0-2.585,4.252l.659,2.416a104.589,104.589,0,0,0-13.85,6.436l-1.061-1.926a3.559,3.559,0,0,0-4.587-1.6,3.429,3.429,0,0,0-1.512,4.741l1.262,2.289c-.209.133-.417.259-.626.393a67.849,67.849,0,0,1-11.191,5.786l-.685-2.254a3.482,3.482,0,0,0-3.6-2.509,3.432,3.432,0,0,0-2.988,4.415l.789,2.6a66.7,66.7,0,0,1-16.9,2.616v-3.2a3.483,3.483,0,0,0-2.712-3.446,3.432,3.432,0,0,0-4.144,3.355v3.381c-5.356.132-10.582.513-15.6,1.132l-.593-3.454a3.481,3.481,0,0,0-3.256-2.937,3.43,3.43,0,0,0-3.515,4.007s.624,3.213,1.086,5.547a4.85,4.85,0,0,0,2.637,3.422h0a4.845,4.845,0,0,0,2.768.44c2.007-.266,4.058-.482,6.129-.672.071,2.271.219,5.323.528,8.3a3.421,3.421,0,0,0,4.191,2.981,3.579,3.579,0,0,0,2.608-3.892c-.284-2.808-.418-5.735-.481-7.861,2.633-.125,5.291-.211,8-.211h.657a73.6,73.6,0,0,0,15.534-1.659,78.5,78.5,0,0,0,2.216,18.814,3.43,3.43,0,0,0,3.333,2.635,3.429,3.429,0,0,0,3.314-4.325,69.815,69.815,0,0,1-1.949-18.981,74.463,74.463,0,0,0,17.52-8.25,102.351,102.351,0,0,1,18.116-9.317,48.71,48.71,0,0,0,2.735,20.443,3.429,3.429,0,0,0,3.215,2.24,3.425,3.425,0,0,0,3.2-4.654,42.516,42.516,0,0,1-1.97-20.477,67.985,67.985,0,0,1,19.658-2.923h.225A17.91,17.91,0,0,0,267.3,112.7a40.131,40.131,0,0,0,2.376-4.614,52.368,52.368,0,0,1,6.377,21.552,3.428,3.428,0,0,0,3.417,3.2,3.257,3.257,0,0,0,.683-.071,3.544,3.544,0,0,0,2.731-3.735,58.818,58.818,0,0,0-10.8-29.945,47.344,47.344,0,0,0-.471-4.727,64.254,64.254,0,0,1,9.013,2.388,3.538,3.538,0,0,0,4.424-1.87,3.427,3.427,0,0,0-2.027-4.554,75.98,75.98,0,0,0-15.61-3.569h-.006c-.674-.086-6.813-.673-14.932,4.495-.1.059-9.716,5.773-17.923,3.527a12.951,12.951,0,0,1-6.241-3.849c9.214-2.026,27.227-7.832,31.182-22.645a8.839,8.839,0,0,1,7.834,2.475,34.451,34.451,0,0,0,12.005,8.211,3.427,3.427,0,0,0,4.617-2.252,3.541,3.541,0,0,0-2.126-4.138,27.805,27.805,0,0,1-9.341-6.341c-.021-.025-.043-.05-.065-.074-6.217-6.83-15.088-4.558-16.67-4.081-1.354.279-13.334,2.609-21.9.038A49.814,49.814,0,0,0,221,59.816c.022-3.306.753-8.755,4.713-13.115,5.389-5.934,15.129-8.4,28.963-7.315l.335.01.8-.017a3.554,3.554,0,0,0,3.544-3.289,3.428,3.428,0,0,0-3.424-3.57h-.07l-.82.016c-.888-.067-1.756-.116-2.617-.157a66.965,66.965,0,0,1,.145-10.33,47.628,47.628,0,0,1,12.355,8.906c-.579,2.323-.915,3.851-.954,4.028a3.432,3.432,0,0,0,.922,3.15,21.644,21.644,0,0,0,15.756,6.577,26.607,26.607,0,0,0,7.659-1.157c4.738,4.594,20.809,23.5,20.81,68.315a41.661,41.661,0,0,0-7.779-10.5,3.51,3.51,0,0,0-4.427-.49,3.431,3.431,0,0,0-.466,5.294c11.61,11.311,11.428,27.031,10.919,32.7-.094.763-.186,1.524-.288,2.3-3.2,21.188-12.6,37.669-28.676,50.294a6.786,6.786,0,0,1-.587-3.726,74.176,74.176,0,0,0-1.114-25.3,7.18,7.18,0,0,1,.556-4.678c.756-1.594,1.29-2.791,1.631-3.658a3.427,3.427,0,1,0-6.377-2.514c-.193.49-.6,1.448-1.448,3.234a14.054,14.054,0,0,0-1.04,9.171,67.161,67.161,0,0,1,.992,22.883,13.581,13.581,0,0,0,4.545,11.973l.038.034c.307.266.623.523.958.763a29.163,29.163,0,0,0,6.991,3.643c.061.021.123.039.185.056,14.36,3.905,17.539,13.528,17.668,20.942a3.306,3.306,0,0,1-.574,1.967,3.339,3.339,0,0,1-5.422.1c-10.61-13.911-25.81-21.685-33.927-25.081a7.17,7.17,0,0,1-4.336-6.8c.2-6.98.212-14.85.212-14.928,0-.013,0-.024,0-.036a3.4,3.4,0,0,0-.042-.425c-.012-.086-.014-.175-.032-.259s-.06-.193-.09-.29a3.472,3.472,0,0,0-.122-.365c-.006-.013-.008-.026-.013-.039-.257-.567-2.853-5.965-14.9-20.517a3.428,3.428,0,0,0-4.966-.332,3.559,3.559,0,0,0-.194,4.849c8.122,9.819,11.68,15.2,13.055,17.484a79.719,79.719,0,0,1-7.712,4.607,3.534,3.534,0,0,0-1.815,4.209,3.428,3.428,0,0,0,4.832,1.949q2.6-1.353,5.084-2.863c-.03,2.147-.075,4.5-.141,6.756a14.065,14.065,0,0,0,8.542,13.328c7.484,3.132,21.48,10.273,31.122,22.915a10.278,10.278,0,0,0,8.115,4.04,10.145,10.145,0,0,0,7.437-3.212,10.568,10.568,0,0,0,2.741-7.59c-.244-8.066-3.611-21.769-22.6-26.985-.224-.081-.938-.348-1.881-.8a81.217,81.217,0,0,0,19.53-22.616q1.349.447,2.825.848a21.054,21.054,0,0,1,15.533,23.648Q321.561,198.4,321.462,198.9ZM271.111,34.522c.709-2.968,2.219-8.939,4.2-14.812a54.586,54.586,0,0,1,9.527,17.674A16.076,16.076,0,0,1,271.111,34.522Z"/><path d="M278.266,145.046a3.424,3.424,0,0,0,3.954-2.806q.115-.677.212-1.345a3.428,3.428,0,0,0-6.785-.979c-.057.391-.12.783-.186,1.177A3.427,3.427,0,0,0,278.266,145.046Z"/><path d="M249.662,214.95a3.432,3.432,0,0,0,1.6-5.087,3.49,3.49,0,0,0-4.208-1.256c-7.466,2.929-15,5.367-21.647,7.52-7.175,2.322-13.95,4.516-19.351,6.9-.046.02-.1.044-.144.067a69.977,69.977,0,0,1-16.489,5,174.652,174.652,0,0,0-1.512-25.47,212.2,212.2,0,0,0,25.379-2.173,108.873,108.873,0,0,0,12.285-2.494,3.541,3.541,0,0,0,2.627-4.064,3.426,3.426,0,0,0-4.238-2.6,102.036,102.036,0,0,1-11.653,2.375,204.687,204.687,0,0,1-25.537,2.124,99.33,99.33,0,0,0-3.172-12.278,29.3,29.3,0,0,0-13.431-16.305,3.431,3.431,0,0,0-4.97,2,3.481,3.481,0,0,0,1.668,4.008A22.461,22.461,0,0,1,177.1,185.681c6.211,18.676,5.869,41.384,5.033,53.851a49.978,49.978,0,0,1-13.6-.432,3.428,3.428,0,0,0-1.3,6.732,57.3,57.3,0,0,0,9.909.855c1.376,0,2.827-.054,4.3-.185a23.774,23.774,0,0,1-5.337,11.335c-7.791,9.07-20.609,13.86-20.722,13.9a46.134,46.134,0,0,0-12.656,6.8,17.487,17.487,0,0,0-6.565,16.314c.872,5.944,2.029,9.9,3.539,12.091,3.422,4.972,13.541,6.186,16.539,6.438a7.582,7.582,0,0,1,6.9,4.788,3.555,3.555,0,0,1-.194,3.264,4.38,4.38,0,0,1-3.407,1.844H139.211a7.233,7.233,0,0,1-6.456-4.136,45.3,45.3,0,0,0-8.8-11.661,6.044,6.044,0,0,1-1.658-5.756c1.878-7.511,2.556-16.58,2.8-22.865a7.288,7.288,0,0,1,3.736-6.052,100.852,100.852,0,0,0,17.616-12.367,15.451,15.451,0,0,0,7.077,3.079,3.5,3.5,0,0,0,.506.037,3.429,3.429,0,0,0,3.425-3.417,3.531,3.531,0,0,0-3.027-3.418,8.187,8.187,0,0,1-2.922-1.122c7.172-8,6.75-23.874-2.924-30.372a32.326,32.326,0,0,1-8.911-9.74,42.8,42.8,0,0,0,8.252,1.9,3.427,3.427,0,0,0,3.886-3.319,3.548,3.548,0,0,0-3.131-3.5c-9.913-1.374-13.3-5.24-13.45-5.421-.171-.225-.862-1.654-.867-1.68a41.477,41.477,0,0,1-.821-14.006,21.482,21.482,0,0,1,3.54-9.306,3.559,3.559,0,0,0-.612-4.778,3.427,3.427,0,0,0-4.942.754,28.673,28.673,0,0,0-4.782,12.431c-.009.066-.013.134-.022.2a54.109,54.109,0,0,0-5.961-.966,3.5,3.5,0,0,0-3.753,2.331A3.432,3.432,0,0,0,119.9,194.6a47.427,47.427,0,0,1,5.355.86c.406.093.8.181,1.208.272a54.7,54.7,0,0,0,1.189,9.135,46.025,46.025,0,0,0,6.86,15.272l-2.561-1.019c-12.026-4.8-25.656-10.238-38.541-12.421a105.413,105.413,0,0,1-33.387-11.611,241.2,241.2,0,0,0,27.821-.28,3.55,3.55,0,0,0,3.43-3.414,3.416,3.416,0,0,0-3.609-3.442c-10.712.567-32.605,1.72-41.458-2.56a32.736,32.736,0,0,1-2.369-12.785,3.428,3.428,0,1,0-6.856-.08,41.058,41.058,0,0,0,.47,6.677A54.881,54.881,0,0,1,20.429,153.3c.322-1.816,1.853-7.764,8.214-9.055a3.512,3.512,0,0,0,2.8-3.792,3.43,3.43,0,0,0-4.065-2.947,16.25,16.25,0,0,0-9.06,5.056,54.367,54.367,0,0,1,13.408-41.135c.6-.681,1.221-1.333,1.848-1.967a11.858,11.858,0,0,1,5.417,1.723,3.427,3.427,0,0,0,4.853-1.254,3.59,3.59,0,0,0-1.459-4.709A17.528,17.528,0,0,0,39.98,94c8.963-6.432,19.14-9.395,27.552-10.712C45.089,96.834,40.42,117.72,39.846,130.348a34.774,34.774,0,0,0,7.189,23.2v0h0l.01.013c5.719,7.232,14.269,11.93,25,13.815.029.006.055.019.085.025s.052,0,.079.007a62.819,62.819,0,0,0,7.893.837,52.971,52.971,0,0,0,29.408-7.75,73.531,73.531,0,0,1,9.3-4.629,37.85,37.85,0,0,0-.194,8.543,3.428,3.428,0,0,0,6.812-.773,38.532,38.532,0,0,1,.743-10.461q2.856-.9,5.872-1.66A3.575,3.575,0,0,0,134.8,147.5a3.428,3.428,0,0,0-4.192-2.687q-3.217.8-6.265,1.761l-.726-2.554a3.557,3.557,0,0,0-4.108-2.591,3.427,3.427,0,0,0-2.539,4.28l.894,3.144a81.333,81.333,0,0,0-11.862,5.756q-1.545.919-3.125,1.717l-1.447-3.258a3.481,3.481,0,0,0-3.877-2.049,3.432,3.432,0,0,0-2.426,4.748L96.564,159a43.9,43.9,0,0,1-16.159,2.4c-1.244-.055-2.447-.154-3.629-.277l.595-3.215a3.544,3.544,0,0,0-2.547-4.132,3.427,3.427,0,0,0-4.162,2.713l-.644,3.484a32.286,32.286,0,0,1-15.283-8.091l2.908-2.273a3.489,3.489,0,0,0,1.047-4.264,3.431,3.431,0,0,0-5.195-1.2l-2.981,2.33a27.983,27.983,0,0,1-3.786-12.693l1.488.185a3.423,3.423,0,0,0,3.851-3.323,3.544,3.544,0,0,0-3.171-3.5l-1.9-.238c1.56-13.862,9.147-34.884,39.29-44.53A3.552,3.552,0,0,0,88.8,79.464a3.431,3.431,0,0,0-3.04-3.8c-1.431-.153-33.611-3.313-55.716,17.679a3.512,3.512,0,0,0-.341.327c-1.057,1.021-2.1,2.079-3.1,3.215a61.271,61.271,0,0,0-9.571,66.636A63.032,63.032,0,0,0,41.464,190.6c2.387,2.192,20.143,17.673,50.8,22.865,12.165,2.06,25.435,7.356,37.143,12.028,2.234.892,5.211,2.035,7.956,3.077a16.262,16.262,0,0,1,10.328,12.6c.629,3.95.53,8.119-1.813,10.449a92.527,92.527,0,0,1-20.373,15.2,14.185,14.185,0,0,0-7.259,11.785c-.226,5.961-.859,14.523-2.595,21.462a12.923,12.923,0,0,0,3.512,12.318,38.522,38.522,0,0,1,7.452,9.808,14.047,14.047,0,0,0,12.6,7.947h20.227a10.9,10.9,0,0,0,8.2-3.545,10.465,10.465,0,0,0,1.783-11.167,14.38,14.38,0,0,0-12.578-8.869c-4.566-.391-10.409-1.923-11.492-3.5-.313-.456-1.414-2.467-2.4-9.2a10.618,10.618,0,0,1,3.99-9.906,39.352,39.352,0,0,1,10.793-5.771c.592-.216,14.6-5.425,23.578-15.877a30.822,30.822,0,0,0,7.27-17.351c.231-2.49.489-5.866.661-9.852a76.919,76.919,0,0,0,19.654-5.83c3.087-1.36,6.634-2.647,10.575-3.978.273,16.032-4.414,24.51-8.568,28.849A18.621,18.621,0,0,1,202.3,259a39.2,39.2,0,0,0-11.173,5.15,20.028,20.028,0,0,0-8.977,17.5,44.15,44.15,0,0,0,8.948,24.966,22.433,22.433,0,0,0,12.409,8.067,11.259,11.259,0,0,1,5.843,3.493,2.958,2.958,0,0,1,.448,3.256,3.119,3.119,0,0,1-2.869,1.854H193.163a5.617,5.617,0,0,1-5.407-3.866c-3.619-11.32-10.938-20.523-14.968-24.991a8.593,8.593,0,0,1-2.2-6.073c.05-1.434.086-2.848.11-4.226a3.587,3.587,0,0,0-3.177-3.619,2.411,2.411,0,0,0-.337-.017,3.2,3.2,0,0,0-3.336,3.143c-.021,1.456-.059,2.955-.113,4.478a15.42,15.42,0,0,0,3.975,10.919c3.664,4.066,10.292,12.391,13.515,22.474a12.453,12.453,0,0,0,11.938,8.634h13.766a9.914,9.914,0,0,0,9.1-5.856,9.8,9.8,0,0,0-1.492-10.59,17.972,17.972,0,0,0-9.311-5.648,15.658,15.658,0,0,1-8.676-5.584A37.326,37.326,0,0,1,189,281.343a13.132,13.132,0,0,1,5.9-11.471,32.354,32.354,0,0,1,9.212-4.263,25.461,25.461,0,0,0,11.745-6.727c5.244-5.477,11.214-16.106,10.413-35.826h0C233.338,220.765,241.49,218.161,249.662,214.95Z"/><path d="M104.646,194.04h.057l.59-.009a3.428,3.428,0,0,0-.039-6.856h-.041l-.623.01a3.428,3.428,0,0,0,.056,6.855Z"/><path d="M261.146,46.465l-1.692.353a3.428,3.428,0,1,0,1.4,6.711l1.692-.352a3.428,3.428,0,1,0-1.4-6.712Z"/><path d="M293.45,81.592c.359-.009.721-.023,1.088-.044a3.428,3.428,0,1,0-.387-6.845q-.441.024-.873.035a3.428,3.428,0,0,0,.084,6.855Z"/><path d="M209.212,144.436a3.43,3.43,0,0,0-3.57,3.279c-.026.6-.51,14.873,9.7,25.475a3.428,3.428,0,0,0,4.937-4.757c-8.1-8.41-7.8-20.231-7.789-20.435A3.428,3.428,0,0,0,209.212,144.436Z"/><path d="M261.845,138a3.429,3.429,0,0,0,2.434-5.842,7.939,7.939,0,0,1-1.882-3.445,3.428,3.428,0,0,0-6.718,1.368,14.676,14.676,0,0,0,3.732,6.9A3.417,3.417,0,0,0,261.845,138Z"/><path d="M102.758,169.152a3.433,3.433,0,0,0-3.681,3.154,36.621,36.621,0,0,0-.007,4.245,3.429,3.429,0,0,0,3.422,3.256c.057,0,.115,0,.174,0a3.43,3.43,0,0,0,3.253-3.6,30.367,30.367,0,0,1-.006-3.38A3.428,3.428,0,0,0,102.758,169.152Z"/><path d="M71.9,171.583a3.427,3.427,0,0,0-3.752,3.069,27.422,27.422,0,0,0-.012,3.87,3.427,3.427,0,0,0,3.42,3.248c.06,0,.122,0,.184-.005a3.428,3.428,0,0,0,3.242-3.6,22.682,22.682,0,0,1-.011-2.841A3.429,3.429,0,0,0,71.9,171.583Z"/><path d="M40.124,157.087c-.167.41-.324.817-.474,1.223a3.428,3.428,0,1,0,6.429,2.382q.191-.516.4-1.034a3.428,3.428,0,1,0-6.355-2.571Z"/><path d="M165.077,217.418a3.572,3.572,0,0,0,.37-.02q.933-.1,1.9-.222a3.428,3.428,0,1,0-.855-6.8q-.906.113-1.778.207a3.428,3.428,0,0,0,.361,6.837Z"/><path d="M231.664,51.739a3.4,3.4,0,1,0,3.4-3.4A3.4,3.4,0,0,0,231.664,51.739Z"/></svg>
