<?xml version="1.0"?>
<svg xmlns="http://www.w3.org/2000/svg" id="outline" viewBox="0 0 340 340" width="512" height="512"><path d="M20.248,254.2c7.948,6.89,18.465,10.349,31.391,10.349A88.794,88.794,0,0,0,66.506,263.2a47.2,47.2,0,0,0,4.264,11.755l.3.564a39.872,39.872,0,0,1,3.422,8.932c.743,2.9,1.4,5.682,1.965,8.258a13.652,13.652,0,0,0,13.271,10.678h17.041a11.111,11.111,0,0,0,10.913-13.241c-.935-4.745-2.059-9.3-3.342-13.524a31.733,31.733,0,0,1-.026-18.919,62.079,62.079,0,0,0,2.595-13.009,32.889,32.889,0,0,0,5.18,4.83,34.1,34.1,0,0,0,7.259,4.161q-1.014,2.656-2.193,5.432c-.039.093-.075.187-.106.283a34.732,34.732,0,0,0-.285,17.061,35.925,35.925,0,0,0,2.951,8.051,34.653,34.653,0,0,1,2.362,6.257,4.48,4.48,0,0,1-.789,3.917,4.668,4.668,0,0,1-3.73,1.845,3.428,3.428,0,0,0,0,6.856,11.473,11.473,0,0,0,9.174-4.533,11.284,11.284,0,0,0,1.963-9.873,41.543,41.543,0,0,0-2.837-7.513,29.26,29.26,0,0,1-2.408-6.522,28.659,28.659,0,0,1,.086-13.315q1.287-3.024,2.379-5.928a37.714,37.714,0,0,0,6.816.8c1.412.032,2.957.079,4.595.137a94.466,94.466,0,0,0,2.275,16.214,31.92,31.92,0,0,1,.348,12.257l-.92,5.6a10.911,10.911,0,0,0,10.765,12.68h19.853a11.109,11.109,0,0,0,10.615-14.382,32.853,32.853,0,0,0-2.124-5.248,21.773,21.773,0,0,1-2.332-10.861c.148-3.313.387-6.563.71-9.66a24.616,24.616,0,0,1,1.283-5.621,71.784,71.784,0,0,0,37.714-17.3,72.695,72.695,0,0,1,10.231-7.533,52.681,52.681,0,0,0,.553,17.248c.234,1.855,2.246,14.659,14.252,27.707.043.045,4.348,4.72,6.226,13.59a4.207,4.207,0,0,1-.87,3.565,4.4,4.4,0,0,1-3.429,1.637H236.063a7.487,7.487,0,0,1-7.435-6.355c-.123-.78-.235-1.609-.331-2.483a26.762,26.762,0,0,0-5.882-14.01,70.6,70.6,0,0,1-8.6-13.256,3.428,3.428,0,0,0-6.16,3.011,77.634,77.634,0,0,0,9.445,14.58,19.909,19.909,0,0,1,4.379,10.428q.164,1.476.374,2.795a14.307,14.307,0,0,0,14.207,12.146h16.412a11.223,11.223,0,0,0,8.755-4.176,11.077,11.077,0,0,0,2.252-9.3c-2.31-10.91-7.759-16.68-7.94-16.866-11.026-11.984-12.439-23.813-12.45-23.919a3.349,3.349,0,0,0-.059-.37,48.635,48.635,0,0,1,.34-20c.242-.109.48-.227.724-.334,12.208-5.338,19.517-15.992,19.822-16.442.046-.067.088-.135.128-.205,16.6-28.7,32.191-35.591,35.063-36.659.474.028,1.136.054,1.952.054,4.25,0,12.547-.724,18.681-5.782,4.27-3.522,6.708-8.423,7.247-14.566a3.43,3.43,0,0,0-3.791-3.707c-.1.011-8.657.909-15.986-1.063a25.864,25.864,0,0,1,6.535-7.041c1.018-.485,6.86-2.914,17.063-.343a3.428,3.428,0,0,0,4.2-2.638c.034-.164,3.086-16.4-17.884-21.283-.619-.263-2.228-.926-4.718-1.817A25.877,25.877,0,0,0,309,99.46a8.629,8.629,0,0,0-8.86-4.133,8.872,8.872,0,0,0-7.312,6.715,18.805,18.805,0,0,1-4.413,8.37c-.509-.1-4.411-1.369-5.409-2.513a14.858,14.858,0,0,0-7.442-4.748c9.2-44.859-15.55-64.955-16.632-65.805a3.428,3.428,0,0,0-5.452,3.491c3.993,16.742.3,36.533-4.9,48.038a68.139,68.139,0,0,0-3.777,11.757s-4.328,1.124-4.939,1.4c2.062-11.576,3.51-29.288-1.56-47.2a54.332,54.332,0,0,1,6.752,8.821,3.428,3.428,0,0,0,5.837-3.6c-8.172-13.263-18.136-18.586-18.557-18.806a3.428,3.428,0,0,0-4.7,4.49c11.555,24.686,6.545,52.075,3.813,62.832a56.729,56.729,0,0,1-13.749,8.683,18.011,18.011,0,0,0-6.225,4.417,55.719,55.719,0,0,0-13.334-1.116,21.823,21.823,0,0,1-11.709-4.411,8.535,8.535,0,0,0-9.614-.606,8.41,8.41,0,0,0-4.009,8.6,24.039,24.039,0,0,0,12.187,17.531c.262.784.593,1.674,1,2.648a24.468,24.468,0,0,1-4,1.888,8.768,8.768,0,0,0-1.965,15.419,25.091,25.091,0,0,0,14.415,4.555,29.244,29.244,0,0,0,8.818-1.43c.3.2.6.393.912.586-.633,2.122-1.19,4.324-1.655,6.582a9.6,9.6,0,0,0,9.378,11.533q.434,0,.871-.038a29.877,29.877,0,0,0,19.088-8.938c2.055.248,6.961.59,7.234.59a14.9,14.9,0,0,0,12.75-7.145l1.189-1.953,3.785,3.688a12.573,12.573,0,0,0,8.819,3.586h7.274a3.428,3.428,0,0,0,3.428-3.428c0-.1.124-9.9,10.828-13.444a3.428,3.428,0,0,0-2.153-6.509,22.069,22.069,0,0,0-15.143,16.525h-4.234a5.752,5.752,0,0,1-4.035-1.641l-6.866-6.691a3.429,3.429,0,0,0-5.321.673L246,164.362a8.053,8.053,0,0,1-7.343,3.841c-35.7-1.93-45.11-21.488-47.5-29.808a6.156,6.156,0,0,1,.125-3.731,38.309,38.309,0,0,1,1.51-3.644,6.278,6.278,0,0,1,5.472-3.608,50.063,50.063,0,0,1,10.472.714c-.335,5.757,2.356,13.914,14.29,18.341a3.428,3.428,0,0,0,2.384-6.428c-10.635-3.945-10.09-10.753-9.626-12.876l.663-.757a11.167,11.167,0,0,1,4-2.864,65.324,65.324,0,0,0,19.219-13.191,10.465,10.465,0,0,1,4.168-2.513,10.7,10.7,0,0,1,1.438-.343,13.588,13.588,0,0,0,1.666,3.395,13.373,13.373,0,0,0,9.267,5.713,23.579,23.579,0,0,0,3.091.2,28.915,28.915,0,0,0,4.728-.4,13.4,13.4,0,0,0,9.5-6.671,7.774,7.774,0,0,1,4.313,2.681,13.736,13.736,0,0,0,7.756,4.443,160.7,160.7,0,0,1,26.992,7.466v7.8a6.325,6.325,0,0,1-2.636,5.175,33.164,33.164,0,0,0-10.777,13.255,44.978,44.978,0,0,0-4.069,18.8c-6,2.67-21.157,11.672-36.924,38.869-.673.949-7.018,9.631-16.836,13.925a78.191,78.191,0,0,0-20.372,13.036A65.038,65.038,0,0,1,192,249.919c2.006-3.007,3.938-6.155,5.75-9.4a3.428,3.428,0,0,0-5.988-3.34c-2.053,3.682-4.262,7.239-6.565,10.572a31.926,31.926,0,0,0-5.5,14.774c-.338,3.232-.587,6.619-.741,10.067a28.644,28.644,0,0,0,3.076,14.286,26.079,26.079,0,0,1,1.68,4.154,4.255,4.255,0,0,1-4.066,5.5H159.793a4.054,4.054,0,0,1-4-4.712l.92-5.6a38.771,38.771,0,0,0-.424-14.876c-1.361-6.039-2.795-14.9-1.9-22.807.455-4.036.9-7.595,1.312-10.58a14.443,14.443,0,0,1,4.46-8.541c5.161-4.811,11.82-12.761,14.232-23.315a3.428,3.428,0,1,0-6.683-1.527c-2.025,8.857-7.765,15.671-12.223,19.826a21.348,21.348,0,0,0-3.274,3.9,189.8,189.8,0,0,1-22.951-.394,3.428,3.428,0,0,0-.531,6.836c5.2.4,10.391.606,15.507.606q2.508,0,4.99-.065c-.129.571-.237,1.148-.318,1.73-.423,3.043-.872,6.662-1.334,10.756-.075.666-.132,1.338-.179,2.012-1.6-.057-3.119-.1-4.509-.134a28.61,28.61,0,0,1-16.678-5.6,23.891,23.891,0,0,1-9.448-15.237,104.916,104.916,0,0,0-3.37-14.443c4.319,2.415,10.051,4.14,17.649,4.14.712,0,1.443-.015,2.189-.047a3.428,3.428,0,1,0-.286-6.85c-21.4.893-25.18-13.4-25.343-14.063l0-.006a36.659,36.659,0,0,1-.8-6.641,3.428,3.428,0,0,0-6.853.191,43.963,43.963,0,0,0,3.516,16,99.131,99.131,0,0,1,6.526,22.767c1.191,11.842-.538,20.547-2.2,25.768a38.549,38.549,0,0,0,0,22.99c1.217,4.012,2.285,8.339,3.176,12.86a4.215,4.215,0,0,1-.885,3.5,4.26,4.26,0,0,1-3.3,1.559H89.727a6.756,6.756,0,0,1-6.572-5.28c-.579-2.657-1.259-5.516-2.022-8.5a46.688,46.688,0,0,0-4.021-10.47l-.272-.514A40.493,40.493,0,0,1,72.245,254c-.054-2.334-.126-4.6-.2-6.7a97.35,97.35,0,0,0-2.564-18.673A3.428,3.428,0,1,0,62.8,230.2a90.358,90.358,0,0,1,2.386,17.353c.078,2.071.149,4.3.2,6.6.017.748.064,1.5.118,2.242-17.82,3.06-31.525.6-40.731-7.354a32.622,32.622,0,0,1-6.092-7.075c4.571,3.2,13.942,5.657,19.1,5.729a47.377,47.377,0,0,0,19.364-4.07,3.428,3.428,0,1,0-2.7-6.3c-6.028,2.583-12.232,3.3-18.457,3.477-4.012.111-13.941-3.763-18.3-8.983a26,26,0,0,1-5.877-19.179,37.124,37.124,0,0,1,8-19.9,34.3,34.3,0,0,0,1.208,19.484,18.252,18.252,0,0,0,11.942,11.415c6.691,2,14.6.357,21.167-4.408,5.43-3.943,11.2-11.765,11.207-18.5v-.006a87.149,87.149,0,0,1,5.017-29.181l.266-.734a57.571,57.571,0,0,1,36.6-34.793c14.79-4.665,32.4-5.885,52.356-3.626a3.428,3.428,0,1,0,.771-6.813c-20.91-2.366-39.479-1.054-55.189,3.9a64.468,64.468,0,0,0-40.973,38.973l-.286.791a94.007,94.007,0,0,0-5.415,31.469v.007c0,4.116-4.332,10.028-8.379,12.966-4.844,3.517-10.514,4.783-15.172,3.388a11.394,11.394,0,0,1-7.494-7.267c-2.884-7.644-1.9-16.559,2.917-26.5a3.428,3.428,0,0,0-4.666-4.537c-.748.389-18.329,9.786-20.7,33.182a32.215,32.215,0,0,0-.151,3.762C4.784,217.005,3.978,240.09,20.248,254.2ZM179.591,123.068a1.515,1.515,0,0,1,.74-1.633,1.656,1.656,0,0,1,1.93.144,27.9,27.9,0,0,0,6.214,3.6,13.253,13.253,0,0,0-1.883,2.923,45.043,45.043,0,0,0-1.78,4.309c-.058.166-.1.334-.154.5A16.962,16.962,0,0,1,179.591,123.068Zm32.59,53.522a2.743,2.743,0,0,1-2.93-3.28c.355-1.722.741-3.276,1.114-4.626a65.734,65.734,0,0,0,12.671,4.259A23.329,23.329,0,0,1,212.181,176.59Zm-15.853-17.358A18.143,18.143,0,0,1,183.951,156a1.876,1.876,0,0,1-.787-1.831,1.8,1.8,0,0,1,1.175-1.5,31.215,31.215,0,0,0,4.819-2.247A45.412,45.412,0,0,0,196.328,159.232Zm66.579-49.6a19.839,19.839,0,0,1-5.8.174,6.423,6.423,0,0,1-4.507-2.787,6.846,6.846,0,0,1-.994-5.482,72.879,72.879,0,0,1,3.332-10.08,99.573,99.573,0,0,0,6.878-40.352c6.017,9.287,12.713,26.586,6.444,53.454A6.621,6.621,0,0,1,262.907,109.632Zm56.476,48.547a12.511,12.511,0,0,1-3.979,5.9c-4.109,3.4-9.965,4.123-13.448,4.219a37.955,37.955,0,0,1,2.268-11.975A50.788,50.788,0,0,0,319.383,158.179Zm8.734-23.047a37.926,37.926,0,0,0-8.962-.336,13.256,13.256,0,0,0,.293-2.686V126.6C325.417,128.918,327.473,132.466,328.117,135.132ZM299.5,103.64a2.011,2.011,0,0,1,1.688-1.537,1.854,1.854,0,0,1,1.939.888,19.032,19.032,0,0,1,2.619,11.741c-2.852-.868-6.182-1.794-9.926-2.7A25.7,25.7,0,0,0,299.5,103.64Z"/><path d="M203.082,224.619a3.429,3.429,0,0,0,3.195-2.186c.38-.975.732-1.932,1.043-2.8a14.042,14.042,0,0,1,3.456-5.385,38.163,38.163,0,0,1,12.535-8.468,32.584,32.584,0,0,0,14.919-11.331,77.564,77.564,0,0,0,4.536-7.22,3.428,3.428,0,1,0-5.994-3.327,70.2,70.2,0,0,1-4.132,6.576,25.755,25.755,0,0,1-11.813,8.912A44.91,44.91,0,0,0,206,209.332a21.119,21.119,0,0,0-5.132,7.993c-.291.814-.621,1.709-.976,2.621a3.431,3.431,0,0,0,3.194,4.673Z"/><path d="M103.476,167.945c-.016.042-.38,1.05-.863,2.772a3.428,3.428,0,1,0,6.6,1.851c.4-1.413.689-2.236.7-2.282a3.428,3.428,0,0,0-6.443-2.341Z"/><path d="M162.174,186.856c-1.312,4.047-4.425,11.679-10.539,17.329a3.428,3.428,0,1,0,4.653,5.035c6.9-6.372,10.554-14.529,12.408-20.25a3.428,3.428,0,0,0-6.522-2.114Z"/><path d="M269.4,130.948a3.428,3.428,0,0,0,0,6.856h2.809a3.428,3.428,0,0,0,0-6.856Z"/></svg>
