<?xml version="1.0"?>
<svg xmlns="http://www.w3.org/2000/svg" id="outline" viewBox="0 0 340 340" width="512" height="512"><path d="M321.553,297.36a3.428,3.428,0,0,0,4.91-2.641c.085-.667,2.021-16.466-4.568-27.64,0-.007-.011-.013-.015-.02s-.008-.019-.013-.027c-5.042-8.242-12.562-13.855-17.982-17.112a24.141,24.141,0,0,0-11.924-3.435c-4.394-.089-7.714.127-8.886.219a99,99,0,0,0-19.741-1.008,3.428,3.428,0,0,0-3.114,4.281,71.218,71.218,0,0,0,7.559,17.207l-2.2,6.608a43.112,43.112,0,0,0-10.089,17.993,3.427,3.427,0,0,0,2.05,4.074,31.791,31.791,0,0,0,10.8,1.863,26.343,26.343,0,0,0,14.2-3.956c6.052,5.4,14.047,6.158,17.087,6.233,2.453,1.688,4.667,3.09,6.713,4.236a1.454,1.454,0,0,1-.212,2.608c-5.935,2.14-12.769,2.241-20.313.3a60.441,60.441,0,0,0-25.563-.821c-1.7.294-3.425.528-5.139.694a3.428,3.428,0,0,0,.663,6.823c1.883-.182,3.783-.439,5.647-.761.306-.053.608-.088.912-.136a20.621,20.621,0,0,1,3.521,8.877,3.744,3.744,0,0,1-.837,3.04,3.648,3.648,0,0,1-2.821,1.307h-3.4a3.428,3.428,0,0,0,0,6.856h3.4A10.579,10.579,0,0,0,272.62,320.7a29.338,29.338,0,0,0-2.727-8.474,51.236,51.236,0,0,1,14.211,1.555,48.049,48.049,0,0,0,11.983,1.607,36.237,36.237,0,0,0,12.366-2.092,8.309,8.309,0,0,0,1.237-15.039c-1.5-.838-3.1-1.834-4.855-3q.269-.678.551-1.342C308.71,294.03,315.96,294.617,321.553,297.36Zm-1.631-8a53.028,53.028,0,0,0-11.205-2.12,72.111,72.111,0,0,1,9.167-12.5A44.268,44.268,0,0,1,319.922,289.365Zm-28.1-36.025a17.269,17.269,0,0,1,8.532,2.456,48.607,48.607,0,0,1,13.98,12.327,48.509,48.509,0,0,0-13.19,18.682,66.417,66.417,0,0,0-2.816,6.248c-3.037-.279-8.534-1.356-12.2-5.358a20.261,20.261,0,0,0-13.174-14.354l1-2.984c.961.046,2.134.082,3.486.082,1.887,0,4.111-.069,6.542-.276a3.428,3.428,0,0,0,3.111-3,61.527,61.527,0,0,0-.023-13.8C288.391,253.324,290.005,253.3,291.821,253.34Zm-11.708-.129a48.04,48.04,0,0,1,.4,10.3,69.052,69.052,0,0,1-6.976-.047,68.177,68.177,0,0,1-5.305-11.051A98.547,98.547,0,0,1,280.113,253.211Zm-16.961,37.135a37.454,37.454,0,0,1,6.529-10.878,13.964,13.964,0,0,1,9.358,8.406C273.253,291.6,266.85,291.112,263.152,290.346Z"/><path d="M85.239,235.8c-.865-.5-1.734-1.055-2.577-1.626l-1.322-.966a1.348,1.348,0,0,1-.525-1.359l.938-4.563a3.428,3.428,0,0,0,2.87-6.141,75.384,75.384,0,0,1-6.8-5.471,3.428,3.428,0,0,0-4.6,5.08c.071.064.787.711,1.823,1.6a1.348,1.348,0,0,1,.455,1.3l-.912,4.439a3.42,3.42,0,0,0-3.553,5.729A76.475,76.475,0,0,0,81.8,241.732a3.428,3.428,0,1,0,3.437-5.932Z"/><path d="M97.592,243.39l-1.409-.939a3.428,3.428,0,0,0-3.8,5.7l1.409.94a3.428,3.428,0,0,0,3.8-5.705Z"/><path d="M251.986,279.2a3.428,3.428,0,0,0-5.9-3.5,57.146,57.146,0,0,0-7.378,24.456,36.2,36.2,0,0,0-5.807-3.981c-8.206-4.535-10.749-12.658-11.311-19.391,1.723-.27,3.337-.557,4.782-.841a27.211,27.211,0,0,0,4.944-1.488,25.17,25.17,0,0,0-.788,9.361,3.415,3.415,0,0,0,3.382,2.913,3.523,3.523,0,0,0,.488-.034,3.439,3.439,0,0,0,2.915-3.864c-.057-.421-1.269-10.357,8.326-18.26a39.9,39.9,0,0,1,5.854-3.055,3.428,3.428,0,1,0-2.658-6.32,45.858,45.858,0,0,0-13.563,8.744,20.921,20.921,0,0,1-10.224,5.276,95.911,95.911,0,0,1-22.42,1.94c-2.814-3.316-11.247-13.44-14.38-19.275-.007-.013-.017-.024-.024-.038s-.008-.019-.013-.028c-5.119-9.047-11.427-12.74-15.818-14.246a3.428,3.428,0,1,0-2.224,6.486,20.191,20.191,0,0,1,8.977,6.579c-6.123.513-15.864,1.135-22.535.6-2.525-2.963-10.114-12.385-14.718-23.619a3.424,3.424,0,0,0-3.453-2.117c-.158.013-15.244,1.23-24.373.206a153.38,153.38,0,0,1-9.126-13.969l8.56,2.144a3.386,3.386,0,0,0,.835.1,3.428,3.428,0,0,0,.831-6.754l-15.748-3.946-17.236-4.568c-.558-5.061-1.637-17.765.133-28.184,1.946-2.986,11.565-17.324,21.07-24.089l19.375,5.443a3.436,3.436,0,0,0,2.068-.068c.146-.052,13.7-4.822,22.123-6.761,1.611,1.736,4.559,5.021,7.744,9.109-2.02-.619-3.277-.924-3.436-.961a3.428,3.428,0,1,0-1.587,6.669,91.742,91.742,0,0,1,23.536,10.014,3.427,3.427,0,1,0,3.578-5.847c-1.507-.923-3.011-1.776-4.493-2.566,4.208-.947,9.236-2.016,13.152-2.66,2.446,2.469,7.985,8.236,10.5,12.257a3.431,3.431,0,0,0,3.325,1.586c.125-.016,11.875-1.449,22.429-2a64.527,64.527,0,0,1,7.383,17.25q-4.576-2.346-9.278-4.506a3.428,3.428,0,0,0-2.851,6.235,217.935,217.935,0,0,1,28.269,15.518,3.428,3.428,0,0,0,3.742-5.745q-4.821-3.141-9.886-6.061A92.025,92.025,0,0,1,254,192.909c1.372,3.521,4.2,11.366,4.859,17.8a3.429,3.429,0,0,0,2.774,3.018,43.775,43.775,0,0,1,10.685,3.537c.138,3.147.4,10.065.431,17.761a3.427,3.427,0,0,0,3.427,3.414h.014A3.428,3.428,0,0,0,279.607,235c-.043-10.623-.518-19.794-.523-19.885a3.431,3.431,0,0,0-1.457-2.629c-3.637-2.545-9.125-4.167-12.275-4.946a95.728,95.728,0,0,0-5.8-19.2,3.429,3.429,0,0,0-2.746-2.054c-7.3-.869-16.222-.054-20.935.516a70.19,70.19,0,0,0-9.54-21.618,3.45,3.45,0,0,0-2.956-1.468c-8.764.365-18.626,1.411-22.851,1.892a121.649,121.649,0,0,0-11.493-12.9,3.438,3.438,0,0,0-2.876-.937c-6.432.92-16.836,3.325-21.476,4.431a139.184,139.184,0,0,0-14.117-17.3,3.427,3.427,0,0,0-3.1-.96c-7.446,1.448-20.165,5.766-23.885,7.054l-19.866-5.58a3.426,3.426,0,0,0-2.775.413,57.1,57.1,0,0,0-10.176,8.758,17.435,17.435,0,0,0-12.552-3.294c-.715-6.236-3.983-14.067-12.948-16.705.575-3.524.813-8.973-1.655-13.995a18.152,18.152,0,0,0-8.379-8.287c1.234-4.6,1.347-11.039-2.955-16.209a17.181,17.181,0,0,0,6.033-15.54,17.436,17.436,0,0,0,8.437-8.3,14.418,14.418,0,0,0,.812-2.436,33.753,33.753,0,0,0,19.754-6.905c7.53-5.62,9.086-13.729,8.868-20.176a19.134,19.134,0,0,0,6.7-6.081c5.106-7.34,3.916-13.093,2.019-16.626A13.675,13.675,0,0,0,93.854,7.049a20.746,20.746,0,0,0-15.817,5.178A17.476,17.476,0,0,0,67.483,9.816c-4.823.4-12.086,2.383-19.3,9.6a28.236,28.236,0,0,0-8.125,23.907,18.177,18.177,0,0,0-3.206,2.436c-8.91,8.468-23.829,28.458-23.639,67.2.2,41.289,20.073,66.828,28.607,75.893a65.173,65.173,0,0,1,13.229,20.394,61.906,61.906,0,0,1,2.7,8.311c-1.116,9.762-1.779,30.271,9.25,45.412-3.836,5.232-13.375,19.079-17.492,32.594l-.024.079c-.377,1.246-.713,2.489-.989,3.722a62.123,62.123,0,0,0-.061,22.207,13.97,13.97,0,0,0,13.761,11.448H82.971a10.95,10.95,0,0,0,10.856-12.429,21.84,21.84,0,0,0-5.95-12.378,1.908,1.908,0,0,1-.539-1.392,1.554,1.554,0,0,1,.547-1.124l.076-.065.084-.072a45.12,45.12,0,0,1,6.617-4.651c1.086-.636,2.542-1.547,4.2-2.72.1-.063.194-.128.286-.2A61.117,61.117,0,0,0,109.31,288.9a3.443,3.443,0,0,0,.563-.649,47.729,47.729,0,0,0,6.549-9.779,133.634,133.634,0,0,0,12.02,9.825,23.149,23.149,0,0,0-3.094,7.811,16.068,16.068,0,0,0,4.132,14.4c3.491,3.594,4.82,8.1,5.792,12.046a2.852,2.852,0,0,1-.536,2.478,2.933,2.933,0,0,1-2.323,1.131h-16a10.379,10.379,0,0,1-8.519-4.376,21.421,21.421,0,0,1-3.46-11.1c0-.086,0-.171-.005-.256-.089-1.54-.2-3.082-.334-4.584a3.428,3.428,0,1,0-6.829.6c.124,1.4.229,2.836.313,4.272a28.188,28.188,0,0,0,4.7,15,17.239,17.239,0,0,0,14.135,7.3h16a9.784,9.784,0,0,0,9.516-12.106c-1.274-5.169-3.068-10.587-7.53-15.181a9.217,9.217,0,0,1-2.33-8.27,16.47,16.47,0,0,1,2.039-5.286c13.165,8.5,30.654,16.243,50.677,16.243a77.413,77.413,0,0,0,8.205-.438A68.206,68.206,0,0,0,209.8,318.61l.365,2.89a13.194,13.194,0,0,0,13.066,11.518h16.056a11.248,11.248,0,0,0,10.92-13.906,37.074,37.074,0,0,0-4.753-11.267C245.259,304.529,244.979,291.015,251.986,279.2ZM58.122,129.354c-2.141,1.929-9.257,8.086-16.114,11.209a66.23,66.23,0,0,1-5.783-21.072l14.868-7.539C60.889,116.135,58.972,126.263,58.122,129.354ZM45.483,69.029c2.308.595,4.054,1.793,5.711,4.68,2.007,8.581-4.469,12.119-5.719,12.712a15.985,15.985,0,0,1-7.617.374A53.4,53.4,0,0,1,45.483,69.029Zm-9.772,43.036a100.725,100.725,0,0,1,.86-18.524,17.755,17.755,0,0,0,4.044.452,24.706,24.706,0,0,0,5.308-.61c4.635,4.13,3.175,9.96,2.3,12.337Zm24.768-48.6a10.286,10.286,0,0,1-4.722,4.7,14.731,14.731,0,0,0-5.694-4.736,34.166,34.166,0,0,1,10.244-7.3C61.3,58.976,61.357,61.434,60.479,63.466ZM93.354,13.887a6.768,6.768,0,0,1,5.5,3.387c1.46,2.718.934,5.815-1.607,9.468-2.92,4.2-7.141,5.885-12.566,5.061,1.911-6.775.461-11.59-1.678-14.815A14.116,14.116,0,0,1,93.354,13.887ZM53.027,24.264c5.747-5.747,11.338-7.313,15.017-7.615A10.12,10.12,0,0,1,76.3,19.53c2.476,2.608,3.05,6.213,1.706,10.715-1.1,3.68-3.7,6.97-7.733,9.777a3.428,3.428,0,1,0,3.918,5.626,28.646,28.646,0,0,0,7.506-7.432,25.489,25.489,0,0,0,5.587.655c.692,0,1.369-.039,2.036-.1-.174,4.349-1.566,9.262-6.109,12.652a26.948,26.948,0,0,1-15.588,5.545,25.579,25.579,0,0,0-2.393-6.687v0l-.008-.016,0-.01h0c-.033-.067-.206-.406-.541-.951A17.866,17.866,0,0,0,51.7,40.923a18.288,18.288,0,0,0-4.97.033A21.34,21.34,0,0,1,53.027,24.264ZM46.808,184.151c-7.977-8.473-26.553-32.375-26.743-71.226-.177-36.164,13.4-54.491,21.506-62.2a11.258,11.258,0,0,1,9.243-3.006,11.08,11.08,0,0,1,5.827,2.608A42.888,42.888,0,0,0,43.093,61.012c-4.661,5.443-9.677,13.9-12.363,26.565a3.41,3.41,0,0,0-.194.922,106.611,106.611,0,0,0-1.37,29.222v.02l0,.019a72.922,72.922,0,0,0,8.062,28.609c.035.074.073.147.113.218a70.042,70.042,0,0,0,11.067,15.328,3.429,3.429,0,0,0,4.976-4.718,63.658,63.658,0,0,1-8.131-10.586c7.2-3.389,14.156-9.225,16.954-11.711,8.477,1.814,9.3,10.1,9.295,13.221l-7.885,8.9a3.428,3.428,0,0,0,5.132,4.547l8.032-9.064a11.3,11.3,0,0,1,9.409,1.244,142.175,142.175,0,0,0-10.032,13.686,3.441,3.441,0,0,0-.471,1.208,92.65,92.65,0,0,0-1.172,18.32,51.4,51.4,0,0,0-13.75,18.245A72.393,72.393,0,0,0,46.808,184.151ZM242.717,324.5a4.345,4.345,0,0,1-3.433,1.664H223.228a6.324,6.324,0,0,1-6.253-5.459,26.306,26.306,0,0,0,3.694.312h.029a3.428,3.428,0,0,0,.027-6.856,23.019,23.019,0,0,1-6.6-1.128C192.8,303.783,182.52,288.972,183.578,269a3.428,3.428,0,0,0-6.847-.363,52.584,52.584,0,0,0,1.221,14.666,120.671,120.671,0,0,1-15.352-3.842,3.428,3.428,0,0,0-2.115,6.522,128.861,128.861,0,0,0,19.844,4.687,45.4,45.4,0,0,0,6.458,10.846c-31.58.89-56.975-19.625-67.671-29.923a39.549,39.549,0,0,0,1.508-8.652,95.662,95.662,0,0,0,16.639,12.542,3.428,3.428,0,1,0,3.529-5.877c-12.718-7.638-19.451-15.663-20.993-17.631l-2.146-8.227a3.428,3.428,0,0,0-6.634,1.73l2.272,8.714c2.023,11.793-1.991,21.112-7.277,27.929a65.809,65.809,0,0,1-12.428-8.174,3.428,3.428,0,0,0-4.484,5.186,72.975,72.975,0,0,0,12.138,8.257,55.118,55.118,0,0,1-4.4,3.781,65.044,65.044,0,0,1-5.48-4.187,3.428,3.428,0,0,0-4.485,5.185c.112.1,1.753,1.51,3.882,3.092a51.586,51.586,0,0,0-7.178,5.1l-.163.141a8.363,8.363,0,0,0-2.921,5.988,8.783,8.783,0,0,0,2.433,6.463,15.123,15.123,0,0,1,4.111,8.574,4.009,4.009,0,0,1-.966,3.227,4.055,4.055,0,0,1-3.1,1.41H62.192a7.115,7.115,0,0,1-7.016-5.823,56.953,56.953,0,0,1-.2-18.31,39.323,39.323,0,0,0,11.294,4.07,3.428,3.428,0,1,0,1.291-6.733,32.61,32.61,0,0,1-10.718-4.178,75.976,75.976,0,0,1,3.037-7.268,30.808,30.808,0,0,0,4.306,2.54,3.428,3.428,0,0,0,2.874-6.225,27.335,27.335,0,0,1-4-2.462,146.12,146.12,0,0,1,10.948-16.728c.027-.036.046-.076.072-.112s.037-.037.053-.059l4.209-6.119a3.428,3.428,0,0,0-5.648-3.886l-1.461,2.124c-11.134-17.659-5.991-43.329-5.94-43.577,1.6-7.358,5.848-13.31,9.72-17.449.3,3.436.613,5.7.65,5.955a3.427,3.427,0,0,0,2.515,2.829l17.895,4.743c4.4,9.634,12.989,20.993,13.372,21.5a3.43,3.43,0,0,0,2.222,1.317c7.6,1.14,19.684.541,24.864.2A101.665,101.665,0,0,0,152.4,256.838a3.426,3.426,0,0,0,2.148,1.09c8.8.977,23.28-.247,28.826-.788,4.8,7.794,14.551,19.074,15,19.592a3.432,3.432,0,0,0,2.335,1.173c1.757.131,11.25.014,14.072-.256a36.762,36.762,0,0,0,2.561,10.8,8.5,8.5,0,0,1-2.475-.4,3.428,3.428,0,0,0-2.614,6.338,15.094,15.094,0,0,0,5.581.927,21.549,21.549,0,0,0,3.319-.279,27.316,27.316,0,0,0,8.431,7.142,28.19,28.19,0,0,1,13.952,18.541A4.407,4.407,0,0,1,242.717,324.5Z"/><path d="M295.23,267.27l1.781,1.018a3.428,3.428,0,1,0,3.4-5.953l-1.781-1.018a3.428,3.428,0,0,0-3.4,5.953Z"/><path d="M202.439,183.683a3.428,3.428,0,1,0,2.284-6.464c-.875-.309-1.342-.461-1.342-.461a3.428,3.428,0,0,0-2.124,6.519C201.28,183.284,201.69,183.419,202.439,183.683Z"/><path d="M241.142,242.774a3.427,3.427,0,0,0,4.528,2.1,3.534,3.534,0,0,0,1.927-4.417c-2.135-6.3-7.186-13.734-7.4-14.05a3.426,3.426,0,0,0-2.659-1.49c-6.982-.349-17.42,1.521-22.183,2.473-5.461-9.542-13.6-20.891-13.974-21.406a3.429,3.429,0,0,0-2.527-1.417c-10.567-.795-22.831,1.567-28.251,2.783-4.649-9.882-10.407-20.811-10.469-20.93a3.428,3.428,0,0,0-2.877-1.825c-11.042-.5-21.686-.239-26.118-.085a103.925,103.925,0,0,0-9.909-13.861,3.433,3.433,0,0,0-2.806-1.189l-19.286,1.151-2.846-1.946a3.483,3.483,0,0,0-4.376.3,3.43,3.43,0,0,0,.432,5.312l14.211,9.716a3.429,3.429,0,0,0,4.948-1.194,3.543,3.543,0,0,0-1.217-4.561l-1.912-1.306,8.72-.521a86.494,86.494,0,0,1,9,13.182,3.444,3.444,0,0,0,3.213,1.854c.128,0,12.321-.581,25.668-.081,1.128,2.17,3.176,6.142,5.406,10.631l-5.1-3.245a3.558,3.558,0,0,0-4.794.793,3.427,3.427,0,0,0,.948,4.885l15.389,9.8c.028.017.352.073.768.138a9.57,9.57,0,0,0,3.64-.124c4.239-.98,15.649-3.341,25.512-2.93,1.938,2.751,6.519,9.355,10.446,15.774l-3.052-1.685a3.557,3.557,0,0,0-4.734,1.091,3.428,3.428,0,0,0,1.25,4.817l21.151,11.683a3.431,3.431,0,0,0,4.891-1.856,3.511,3.511,0,0,0-1.686-4.207l-5.923-3.272a104.124,104.124,0,0,1,16.389-1.927A57.6,57.6,0,0,1,241.142,242.774Z"/></svg>
