<?xml version="1.0"?>
<svg xmlns="http://www.w3.org/2000/svg" id="outline" viewBox="0 0 340 340" width="512" height="512"><path d="M317.41,184.8c-1.228-2.239-2.317-4.457-3.236-6.593a25.594,25.594,0,0,1-1.729-14.374,86.882,86.882,0,0,0,1.086-14.41c.815-1,1.616-2.037,2.378-3.1a62.493,62.493,0,0,0,10.26-23.238,3.214,3.214,0,0,0,.119-.355c8.038-33.351.723-50.162-6.351-66.419-.587-1.35-1.176-2.7-1.76-4.073-4.409-10.352-8.073-20.285-8.544-21.569a26.87,26.87,0,0,0-6.525-11.264,20.038,20.038,0,0,0-15.693-5.822,19.832,19.832,0,0,0-14.55,7.916,21.147,21.147,0,0,0-4.043,12.021c-4.783,7.617-12.446,10.6-18.12,11.744a13.07,13.07,0,0,0-10.523,13.141c.015.617.058,1.256.124,1.905a8.882,8.882,0,0,0,9.372,7.924c7.1-.391,14.6,2.058,16.583,2.759A161.919,161.919,0,0,1,279.7,84.356c1.327,1.755,4.11,6.433,3.512,10.422a7.64,7.64,0,0,1-3.625,5.227c-5.338,3.648-12.112,1.1-13.415.547a45.328,45.328,0,0,0-7.663-2.56c-34.031-7.676-67.155,21.141-83.875,39a206.631,206.631,0,0,1-17.979,16.843c-26.671,22.433-43.946,58.96-44.637,60.439-20.777,42.092-45.983,66.8-63.469,80.112a101.478,101.478,0,0,1-24.4,13.56c-16.162,6.354-17.753,13.36-17.907,14.7a3.429,3.429,0,0,0,3.4,3.821c.07,0,.141,0,.212-.007a168.01,168.01,0,0,0,60.831-15.2,3.2,3.2,0,0,0,.375-.11,26.313,26.313,0,0,0,3.539-1.763,168.812,168.812,0,0,0,41.777-29.462c18.515-17.793,28.324-34.888,31.188-40.323a115.667,115.667,0,0,0,21.283-4.625,25.555,25.555,0,0,1,18.446,1.027c1.111.51,2.333,1.014,3.642,1.488-3.491,2.8-7.277,6.032-11.045,9.6l-2.327-2.632a3.482,3.482,0,0,0-4.315-.784,3.431,3.431,0,0,0-.881,5.257l2.644,2.991c-1.494,1.553-2.964,3.146-4.382,4.784l-2.019-2.15a3.558,3.558,0,0,0-4.84-.417,3.429,3.429,0,0,0-.291,4.969l2.8,2.985c-.311.414-.628.825-.93,1.243a40.788,40.788,0,0,0-7.974,22.068,36.047,36.047,0,0,0,.447,7.641,14.826,14.826,0,0,0,4.3,8.138,20.869,20.869,0,0,1,4.552,6.549,2.589,2.589,0,0,1-.228,2.468,2.69,2.69,0,0,1-2.267,1.228h-7.615a7.865,7.865,0,0,1-7.323-5.142,45.631,45.631,0,0,0-5.554-10.821,13.928,13.928,0,0,1-2.673-9.578l1.058-10.078a21.832,21.832,0,0,1,4.211-10.747,86.761,86.761,0,0,0,8.579-14.181,3.47,3.47,0,0,0-1-4.257,3.431,3.431,0,0,0-5.172,1.259,79.619,79.619,0,0,1-7.912,13.085,28.693,28.693,0,0,0-5.529,14.125l-1.058,10.079a20.767,20.767,0,0,0,3.932,14.305,38.88,38.88,0,0,1,4.685,9.192,14.748,14.748,0,0,0,13.751,9.615h7.395a9.8,9.8,0,0,0,6.874-2.691,9.484,9.484,0,0,0,2.136-10.576,27.813,27.813,0,0,0-6.055-8.738,8,8,0,0,1-2.328-4.388,29.131,29.131,0,0,1-.358-6.183,33.972,33.972,0,0,1,6.679-18.351c8.131-11.229,19.9-21.243,28.413-27.714a42.059,42.059,0,0,0,18.625-1.172,3.51,3.51,0,0,0,2.6-3.617,3.431,3.431,0,0,0-4.384-3,36.919,36.919,0,0,1-26.011-2.074,32.391,32.391,0,0,0-23.386-1.328,111.484,111.484,0,0,1-14.739,3.58,39.117,39.117,0,0,1,18.547-14.052,3.535,3.535,0,0,0,2.229-4.247,3.429,3.429,0,0,0-4.458-2.238c-11.457,4.175-20.215,12.02-26.032,23.318-.011.02-.017.041-.027.061s-.015.023-.021.036c-.094.2-9.571,19.832-30.638,40.079-3.414,3.281-7.264,6.692-11.554,10.1,13.518-16.468,26.886-37.421,34.1-53.869a121.858,121.858,0,0,1,26.5-38.309,2,2,0,0,1,2.8.008,3.429,3.429,0,0,0,4.93.084,3.575,3.575,0,0,0-.255-5.1,8.9,8.9,0,0,0-12.227.063,128.877,128.877,0,0,0-28.023,40.5c-11.215,25.56-39.641,64.7-56.226,74.719a159.7,159.7,0,0,1-54.053,15.736,45.272,45.272,0,0,1,9.034-4.591A108.3,108.3,0,0,0,52.7,299.841c18.072-13.759,44.1-39.247,65.5-82.6.171-.365,17.345-36.692,42.871-58.163a213.232,213.232,0,0,0,18.57-17.4c15.719-16.79,46.668-43.922,77.363-37a38.668,38.668,0,0,1,6.511,2.191c2.639,1.11,11.876,4.307,19.943-1.2a14.462,14.462,0,0,0,6.333-8.867c1.277,1.766,2.53,3.589,3.736,5.464-9.084,19.068-30.464,12.216-31.394,11.906a3.432,3.432,0,0,0-4.5,2.854,3.481,3.481,0,0,0,2.425,3.682,37.835,37.835,0,0,0,11.675,1.813c8.869,0,19.179-3.084,25.831-13.416,1.127,2.1,2.174,4.232,3.108,6.4a3.431,3.431,0,0,0,5,1.535,3.5,3.5,0,0,0,1.266-4.332C299.7,95.975,286.8,81.363,278.37,72.942c1.439-.06,2.78-.2,3.962-.367A17.506,17.506,0,0,0,294.494,65a26.888,26.888,0,0,0,1.643-2.851l.011-.018c.008-.014.014-.03.022-.044.015-.03.032-.059.047-.089a3.085,3.085,0,0,1,1.863-1.609,3.5,3.5,0,0,1,2.67.221,3.355,3.355,0,0,0,3.476-.035,3.465,3.465,0,0,0-.18-5.977,10.37,10.37,0,0,0-5.085-1.223c.255-1.522.413-2.97.5-4.224a3.427,3.427,0,1,0-6.838-.479c-.17,2.407-.717,6.929-2.489,10.168-.007.012-.009.025-.016.037-.016.033-.037.063-.053.1a20.325,20.325,0,0,1-1.284,2.238,10.65,10.65,0,0,1-7.415,4.572c-3.286.467-8.045.679-12.043-.967-.009,0-.019,0-.029-.009s-.017-.01-.026-.013c-.412-.162-10.219-3.941-19.972-3.406a2.02,2.02,0,0,1-2.174-1.784c-.045-.438-.077-.9-.089-1.374a6.225,6.225,0,0,1,5.025-6.247c5.375-1.084,14.834-4.2,21.278-12.93,2.89,1.07,7.761,2.023,15.951,2.023.87,0,1.73-.025,2.563-.075a3.531,3.531,0,0,0,3.364-3.489,3.416,3.416,0,0,0-3.649-3.363c-.734.048-1.5.071-2.278.071-7.932,0-11.835-.951-13.549-1.581a14.071,14.071,0,0,1,2.634-7.057,12.985,12.985,0,0,1,9.535-5.162,13.221,13.221,0,0,1,10.337,3.815,20.028,20.028,0,0,1,4.785,8.271c.015.064.045.12.063.181s.025.126.048.188c.039.106,3.954,10.835,8.73,22.049q.887,2.078,1.781,4.122c3.177,7.3,6.269,14.42,7.967,22.985-1.754-3.926-3.715-7.825-5.869-11.611a3.552,3.552,0,0,0-4.609-1.518,3.427,3.427,0,0,0-1.435,4.76A127.245,127.245,0,0,1,316.063,86.4a57.663,57.663,0,0,1-3.091,51.876c-.306-3.205-.692-6-1.039-8.173a3.482,3.482,0,0,0-3.235-2.977,3.433,3.433,0,0,0-3.55,3.97c1.065,6.63,2.549,19.552.535,31.605a32.458,32.458,0,0,0,2.193,18.216c1,2.334,2.191,4.75,3.524,7.178a86.181,86.181,0,0,0,6.959,10.611c3.525,4.66,11.32,16.908,7.577,29.977a3.5,3.5,0,0,1-3.138,2.571,3.362,3.362,0,0,1-3.4-1.914,26.679,26.679,0,0,1-2.42-11.513,23.487,23.487,0,0,0-4.647-14c-3.081-4.124-7.829-10.2-12.946-15.741a29.436,29.436,0,0,1-7.872-19.1,90.953,90.953,0,0,1,1.146-18.309,30.3,30.3,0,0,1,4.194-11.1,3.468,3.468,0,0,0-.418-4.3,3.432,3.432,0,0,0-5.329.561,37.111,37.111,0,0,0-5.2,13.649l-.009.057c-3.89-6.83-1.113-13.642,1.366-17.628a3.548,3.548,0,0,0-.807-4.735,3.429,3.429,0,0,0-4.912.949c-2.646,4.2-9.994,18.534,3.261,30.892-.2,3.234-.249,6.629-.146,10.167a35.462,35.462,0,0,0,.377,4.176,128.164,128.164,0,0,0-20.948,20.895,180.021,180.021,0,0,0-2.277-19.283,50.865,50.865,0,0,1,15.106-10.27,3.428,3.428,0,1,0-2.708-6.3,56.677,56.677,0,0,0-14,8.758c-3.78-16.03-10.516-30.872-22.064-40.475a3.511,3.511,0,0,0-4.452-.128,3.432,3.432,0,0,0-.032,5.316c29.758,24.587,24.538,89.569,22.23,108.9a21.688,21.688,0,0,1-3.2,8.886c-.671,1.082-1.292,2.172-1.875,3.266l-2.025-.871a3.557,3.557,0,0,0-4.6,1.552,3.43,3.43,0,0,0,1.718,4.671l2.025.871a69.628,69.628,0,0,0-2.422,7.195l-2.427-.942a3.481,3.481,0,0,0-4.194,1.281,3.43,3.43,0,0,0,1.627,5.076l3.45,1.34a67.355,67.355,0,0,0-1.141,11.126c-.763,5.815.435,17.214,10.342,20.434a12.321,12.321,0,0,1,6.034,4.2,1.557,1.557,0,0,1,.177,1.683,1.516,1.516,0,0,1-1.418.882H243.431a7.4,7.4,0,0,1-6.94-4.891,60.928,60.928,0,0,0-8.313-14.9,11.359,11.359,0,0,1-2.285-7.568l.372-5.77a11.329,11.329,0,0,1,1.13-4.444,25.152,25.152,0,0,0,2.362-10.321,3.293,3.293,0,0,0-.018-.345c-2.037-20.144,3.494-27.895,3.518-27.929.062-.08.122-.161.177-.245a20.491,20.491,0,0,0,1.472-2.671c2.034,1.79,8.91,3,9.287,2.972a3.428,3.428,0,1,0-.487-6.838,20.588,20.588,0,0,1-2.678-1.739,11.573,11.573,0,0,1-4.568-6.537,3.507,3.507,0,0,0-1.805-2.408c-15.087-9.655-22.507-24.128-25.882-33.213a65.55,65.55,0,0,0,11.716,10.39,103.381,103.381,0,0,1,13.461,11.057,9.04,9.04,0,0,0,12.28.427l.461-.4a3.558,3.558,0,0,0,.6-4.819,3.429,3.429,0,0,0-4.956-.481l-.605.528a2.145,2.145,0,0,1-2.93-.1q-.762-.76-1.579-1.53a19.419,19.419,0,0,1,3.284-3.9,3.518,3.518,0,0,0,.7-4.636,3.428,3.428,0,0,0-5.007-.7,24.355,24.355,0,0,0-4.174,4.68q-1.809-1.478-3.788-2.97a40.32,40.32,0,0,1,9.386-9.979,3.549,3.549,0,0,0,.943-4.722,3.426,3.426,0,0,0-4.915-.868,47.04,47.04,0,0,0-10.963,11.526c-7.071-5.305-11.3-10.579-13.829-15.145a32.359,32.359,0,0,1,13.488-21.763,3.555,3.555,0,0,0,1.029-4.711,3.427,3.427,0,0,0-4.9-.951,40.358,40.358,0,0,0-13.265,15.9,13,13,0,0,1,.013-2.206c.006-.048,0-.094,0-.142.877-9.349,4.466-17.024,10.776-22.906a3.534,3.534,0,0,0,.416-4.771,3.427,3.427,0,0,0-4.982-.345c-5.7,5.275-11.663,13.872-13,27.191,0,.02-.011.039-.014.059-.012.085-.048.387-.074.86a67.151,67.151,0,0,0,1.184,18.273,76.219,76.219,0,0,0,14.287,30.423,28.866,28.866,0,0,1-14.447,1.168,67.716,67.716,0,0,0-13.169-.853,3.55,3.55,0,0,0-3.5,3.361,3.4,3.4,0,0,0,3.55,3.5,60.9,60.9,0,0,1,12,.758,38.024,38.024,0,0,0,6.243.522,34.4,34.4,0,0,0,14.074-2.959,67.573,67.573,0,0,0,10.875,9.214l.357.607a12.462,12.462,0,0,1-2.043,8c-1.137,1.536-7.024,10.671-4.858,32.5a18.552,18.552,0,0,1-1.612,7.071,18.147,18.147,0,0,0-1.864,7.115l-.372,5.769a18.225,18.225,0,0,0,3.656,12.139,54.043,54.043,0,0,1,7.367,13.183,14.381,14.381,0,0,0,13.358,9.335H257.7a8.685,8.685,0,0,0,7.681-4.4,8.4,8.4,0,0,0-.757-9.231,19.058,19.058,0,0,0-9.327-6.509c-7.07-2.3-5.654-13.09-5.639-13.188a3.5,3.5,0,0,0,.035-.53c0-.167-.053-16.823,8.836-31.146a28.471,28.471,0,0,0,4.183-11.687,274.4,274.4,0,0,0,1.837-36.723c5.294-7.158,13.213-16.752,22.36-24.244a36.312,36.312,0,0,0,1.812,4.1,164.552,164.552,0,0,0,.937,16.429c1.218,11.052.137,18.85-3.308,23.838a3.682,3.682,0,0,1-4.236,1.207,2.929,2.929,0,0,1-2.243-2.653,27.907,27.907,0,0,1,1.227-7.3,52.756,52.756,0,0,0,1.63-18.22,3.428,3.428,0,0,0-6.84.466,45.98,45.98,0,0,1-1.375,15.843,34.761,34.761,0,0,0-1.5,9.123,9.605,9.605,0,0,0,7.018,9.272,11.3,11.3,0,0,0,3.438.541,10.269,10.269,0,0,0,8.521-4.384c4.483-6.494,5.908-15.545,4.48-28.486-.211-1.907-.373-3.883-.51-5.891,4.3,4.821,8.23,9.867,10.886,13.42a16.661,16.661,0,0,1,3.283,9.945,33.457,33.457,0,0,0,3.1,14.453,10.207,10.207,0,0,0,9.242,5.8c.3,0,.608-.013.914-.039a10.359,10.359,0,0,0,9.14-7.514c4.595-16.042-4.554-30.521-8.7-36A79.536,79.536,0,0,1,317.41,184.8Z"/><path d="M174.012,177.154a3.427,3.427,0,1,0-5.327,4.314l3.587,4.43a3.428,3.428,0,1,0,5.327-4.315Z"/><path d="M183.188,177.034a3.428,3.428,0,0,0,2.739-5.485l-2.121-2.828a3.428,3.428,0,1,0-5.485,4.113l2.122,2.829A3.42,3.42,0,0,0,183.188,177.034Z"/><path d="M220.251,174.946a3.427,3.427,0,0,0,4.794-.715c.042-.057,4.25-5.7,8.377-8.581a3.428,3.428,0,0,0-3.92-5.625c-5.06,3.527-9.771,9.861-9.969,10.129A3.427,3.427,0,0,0,220.251,174.946Z"/><path d="M243.4,213.53a3.428,3.428,0,1,0,2.371,6.433l2.681-.988a3.428,3.428,0,1,0-2.37-6.433Z"/><path d="M242.8,120.35a9.293,9.293,0,0,1,1.79.016c.1.009.206.014.308.014a3.428,3.428,0,0,0,.3-6.843,14.9,14.9,0,0,0-3.414.033,3.408,3.408,0,0,0-2.839,3.869A3.447,3.447,0,0,0,242.8,120.35Z"/><path d="M276.042,43.831l-1.085.221a3.428,3.428,0,0,0,.682,6.787,3.385,3.385,0,0,0,.689-.07l1.085-.221a3.428,3.428,0,1,0-1.371-6.717Z"/></svg>
