<?xml version="1.0"?>
<svg xmlns="http://www.w3.org/2000/svg" id="outline" viewBox="0 0 340 340" width="512" height="512"><path d="M25.708,196.5c21.226,25.047,58.373,29.741,69.252,30.583,2.869.222,6.157.589,9.431,1.047a44.375,44.375,0,0,1-.009,7.586,26.189,26.189,0,0,1-1.683,6.837c-1.547,4.119-3.632,13.521-.212,30.218.007.034.014.07.023.1.015.065,1.552,6.56,2.736,13.7a13.283,13.283,0,0,0,13.145,11.142h17.533a10.872,10.872,0,0,0,10.757-12.5,73.7,73.7,0,0,0-2.164-9.836,32.039,32.039,0,0,1-.716-15.155,129.676,129.676,0,0,1,4.292-16.407c2.225,1.1,7.105,3.375,7.436,3.521-.145.363-3.708,10.273-2.257,17.674a140.507,140.507,0,0,0,4.482,17.755,6.061,6.061,0,0,1-.43,4.888,6.14,6.14,0,0,1-3.869,3.017,3.428,3.428,0,1,0,1.668,6.65,13.021,13.021,0,0,0,8.215-6.374,12.845,12.845,0,0,0,.916-10.358c-1.908-5.7-2.766-11.439-4.218-16.7-1.418-5.136,1.722-13.665,1.869-14.034q4.222,1.482,8.939,2.7a74.351,74.351,0,0,0,2.438,10.2,24.041,24.041,0,0,1,1.063,6.909c.046,3.493.109,8.649.15,14.142a14.045,14.045,0,0,0,14.007,13.9h16.162a10.468,10.468,0,0,0,7.722-3.41,10.592,10.592,0,0,0,2.7-8.1,21.369,21.369,0,0,0-2.751-9.212,11.883,11.883,0,0,1-1.791-5.928,107.074,107.074,0,0,0-1.1-13.427c3.3.121,6.516.178,9.589.177q3.16,0,6.1-.071a63.765,63.765,0,0,0-1.223,8.008,22.761,22.761,0,0,0,2,11.605,53.023,53.023,0,0,1,2.569,6.613,5.313,5.313,0,0,1-5.07,6.886,3.428,3.428,0,0,0,0,6.856,12.168,12.168,0,0,0,11.617-15.777,60.094,60.094,0,0,0-2.9-7.474,15.9,15.9,0,0,1-1.384-8.107,55.746,55.746,0,0,1,1.481-8.862c7.013-.346,12.479-.9,15.475-1.337a142.548,142.548,0,0,1,25.167-1.476,29.745,29.745,0,0,0,15.779,4.795A28.022,28.022,0,0,0,302.5,255.7a12.913,12.913,0,0,1,6.413-1.685h3.6c5.526,0,9.836-1.566,12.808-4.656a14.227,14.227,0,0,0,3.862-9.836,3.459,3.459,0,0,0-.107-.73,25.425,25.425,0,0,0-3.345-7.542,16.728,16.728,0,0,0-14.093-7.481h-.02c-2.358.014-4.579-.089-6.679-.273a7.256,7.256,0,0,1-5.01-2.683c-7.365-9.222-16.515-9.235-19.188-9.014a36.779,36.779,0,0,1-14.7-7.624,22.165,22.165,0,0,0,11.528-6.818c9.659-10.75,7.826-28.922,7.743-29.69a3.426,3.426,0,0,0-2.418-2.915,60.756,60.756,0,0,0-11.188-2.288,3.428,3.428,0,1,0-.712,6.819,52.44,52.44,0,0,1,7.631,1.392c.134,4.691-.264,15.542-6.156,22.1-3.134,3.489-7.367,5.22-12.9,5.313-1.805-1.94-3.447-3.907-4.9-5.792a30.884,30.884,0,0,0,9.539-6.3,3.428,3.428,0,0,0-4.849-4.848,24.989,24.989,0,0,1-8.789,5.412c-2.279-3.453-3.556-5.868-3.6-5.956-.065-.122-.221-.413-.46-.844,20.323-6.966,22.651-32.6,20.854-45.923a3.427,3.427,0,0,0-2.532-2.859,87.8,87.8,0,0,0-21.53-3.095h-.017a3.428,3.428,0,0,0-.017,6.856,78.214,78.214,0,0,1,17.523,2.3c.559,7.615.767,31.543-17.89,36.669-1.036-1.641-2.261-3.513-3.668-5.551a33.363,33.363,0,0,0,12.3-12.99,3.428,3.428,0,0,0-6.059-3.209,26.608,26.608,0,0,1-10.27,10.607c-1.255-1.666-2.6-3.389-4.043-5.147a34.694,34.694,0,0,1,4.763-3.826,3.427,3.427,0,1,0-3.81-5.7,41.492,41.492,0,0,0-5.42,4.311q-1.651-1.839-3.424-3.682c22.791-15.818,8.261-59.809,7.595-61.776a3.438,3.438,0,0,0-3.4-2.327c-12.679.561-23.521,2.833-32.228,6.753a3.428,3.428,0,1,0,2.816,6.252c7.311-3.293,16.406-5.312,27.065-6.011,2.639,9.239,10.414,41.68-6.866,52.176-2.411-2.245-4.958-4.435-7.633-6.519a60.444,60.444,0,0,0,4.524-6.154,3.428,3.428,0,1,0-5.767-3.707,53.6,53.6,0,0,1-4.323,5.824q-2.394-1.611-4.9-3.077a63.015,63.015,0,0,1,3.774-9.335,3.428,3.428,0,0,0-6.12-3.09,69.63,69.63,0,0,0-3.815,9.186,70.428,70.428,0,0,0-9.157-3.572c4.715-9.387,5.714-18.868,2.938-28.226-6.859-23.127-34.277-37.1-35.441-37.68a3.429,3.429,0,0,0-3.768.462C134.78,69.5,126.331,82.807,123.432,97.243a3.428,3.428,0,1,0,6.722,1.349c2.466-12.28,9.555-23.755,21.08-34.134,6.193,3.553,24.944,15.5,29.952,32.428,2.381,8.051,1.295,16.3-3.211,24.54a75.012,75.012,0,0,0-13.442-1.322c.24-3.37.517-8.666.471-14.806a3.428,3.428,0,0,0-3.427-3.4h-.027a3.428,3.428,0,0,0-3.4,3.453c.047,6.312-.269,11.788-.507,14.962-2.119.152-4.206.372-6.245.658a92.318,92.318,0,0,1-.574-10.01,3.428,3.428,0,0,0-3.427-3.426h0a3.428,3.428,0,0,0-3.425,3.431,98.632,98.632,0,0,0,.662,11.206c-2.512.532-4.933,1.138-7.241,1.8C129.5,98.186,97.276,96.6,96.941,96.582a3.411,3.411,0,0,0-3.039,1.6c-14.556,23.17-7.314,42.908-3.625,50.182-3.536,2.274-6.74,4.252-9.656,5.773-.492-1.121-1.073-2.577-1.673-4.363a3.428,3.428,0,0,0-6.5,2.186c.65,1.932,1.287,3.535,1.845,4.818-.2.057-.406.12-.605.169a25.1,25.1,0,0,1-8.342.73c-2.033-3.807-3.563-9.2-.747-14.831,3.65-7.3,6.717-10.887,8.207-12.367a35.219,35.219,0,0,1,3.935,1.4,3.428,3.428,0,1,0,2.68-6.31,37.664,37.664,0,0,0-6.838-2.214,3.425,3.425,0,0,0-2.5.478c-.548.35-5.531,3.778-11.614,15.944a21.2,21.2,0,0,0-1.51,15.129,19.476,19.476,0,0,1-8.836-14.343l-.029-.229a66.611,66.611,0,0,1,1.24-23.051A108.091,108.091,0,0,1,54.81,100.22l.5-1.1a7.678,7.678,0,0,1,7.284-4.542,51.835,51.835,0,0,1,12.169,1.941,3.428,3.428,0,0,0,1.871-6.595,58.7,58.7,0,0,0-13.778-2.2,14.434,14.434,0,0,0-1.91.058,109.6,109.6,0,0,1,9.537-13.92,7.714,7.714,0,0,1,6.357-2.143l6.819.851a3.428,3.428,0,1,0,.849-6.8l-6.1-.761C89.385,53.977,99,48.863,99.189,48.764a3.428,3.428,0,0,0-2.412-6.37A126.54,126.54,0,0,0,69.049,52.835l-.371-7.292a3.427,3.427,0,1,0-6.846.349l.406,7.98A4.578,4.578,0,0,1,60.066,58a3.372,3.372,0,0,0-.556.427A104.877,104.877,0,0,0,46.451,68.543L43.331,47a3.428,3.428,0,1,0-6.785.983l3.543,24.458a4.567,4.567,0,0,1-.841,3.358c-7.863,9.372-14.192,19.528-17.4,26.457a114.358,114.358,0,0,0-10.7,43.583C9.424,166.013,14.317,183.056,25.708,196.5Zm72.933-92.9c6.49.707,26.716,4.354,32.207,22.442-4.3,1.506-8.028,3.089-11.015,4.483a54.049,54.049,0,0,0-8.154-13.191,3.428,3.428,0,0,0-5.147,4.529,47.751,47.751,0,0,1,7.171,11.766c-.987.546-1.593.91-1.749,1q-1.269.751-2.489,1.492c-.358-.583-.764-1.25-1.216-2.007a3.428,3.428,0,0,0-5.885,3.517c.474.793.9,1.491,1.273,2.1-2.693,1.7-5.21,3.334-7.577,4.876C92.957,138.2,87.7,122.448,98.641,103.6Zm-70.454,1.294C40.162,80.5,56.56,68.42,63.344,64.005a3.257,3.257,0,0,0,.315-.164c.209-.129.4-.283.594-.424a105.618,105.618,0,0,1,13.108-7.085,115.516,115.516,0,0,0-29,41.5l-.044.1c-.011.025-.015.05-.026.075a117.172,117.172,0,0,0-5.642,17.736,73.393,73.393,0,0,0-1.368,25.419l.033.269a26.274,26.274,0,0,0,12.062,19.336c6.335,3.939,13.727,4.9,21.966,2.84,6.71-1.672,13.632-6.188,23.213-12.438,4.9-3.2,10.455-6.821,16.926-10.658.3-.185,30.732-18.434,61.594-12.277,37.921,7.569,63.563,55.107,63.8,55.557.557,1.073,12.3,23.367,30.793,32.069a12.707,12.707,0,0,0-2.8,4.581,3.428,3.428,0,1,0,6.458,2.3c.832-2.333,2.734-3.7,5.652-4.07.018,0,.033-.009.051-.012s.035,0,.051,0c.307-.042,7.536-1.007,13.485,6.44a14.14,14.14,0,0,0,9.767,5.232c2.266.2,4.68.3,7.175.3.042,0,.081,0,.123,0a10.03,10.03,0,0,1,8.358,4.381,18.6,18.6,0,0,1,2.324,5.071,7.474,7.474,0,0,1-1.939,4.527c-1.63,1.695-4.278,2.554-7.868,2.554h-3.6a19.777,19.777,0,0,0-9.822,2.593c-4.147,2.375-12.56,5.351-22.745-.988a41.384,41.384,0,0,0-6.975-7.9,28.815,28.815,0,0,0-13.224-6.608,3.428,3.428,0,0,0-1.374,6.717,21.954,21.954,0,0,1,10.07,5.039q.965.847,1.851,1.742a156.874,156.874,0,0,0-19.971,1.615,198.333,198.333,0,0,1-21.882,1.529,29.85,29.85,0,0,0,10.276-16.941,3.428,3.428,0,0,0-6.672-1.58c-3.681,15.546-16.424,17.858-21.172,18.177a17.509,17.509,0,0,0-7.382-6.057,3.428,3.428,0,1,0-2.808,6.254,10.316,10.316,0,0,1,4.949,4.355,91.43,91.43,0,0,1,1.666,16.106,18.747,18.747,0,0,0,2.8,9.36,14.9,14.9,0,0,1,1.77,6.266,3.663,3.663,0,0,1-.944,2.845,3.545,3.545,0,0,1-2.654,1.172H188.5a7.17,7.17,0,0,1-7.151-7.1c-.041-5.509-.1-10.68-.151-14.183a30.822,30.822,0,0,0-1.38-8.878,66.663,66.663,0,0,1-2.843-14.225,16.225,16.225,0,0,1,6.5-14.438,85.412,85.412,0,0,1,11.99-7.448,3.556,3.556,0,0,0,.41-.238c6.076-4.11,10.38-9.141,12.793-14.952a3.354,3.354,0,0,0,.124-.353,21.654,21.654,0,0,0-.206-12.447,27.293,27.293,0,0,0-5.808-10.234,118.35,118.35,0,0,0-9.8-9.667,86.526,86.526,0,0,0-9.615-7,3.428,3.428,0,1,0-3.7,5.769,77.071,77.071,0,0,1,8.76,6.354,111.613,111.613,0,0,1,9.242,9.112,20.381,20.381,0,0,1,4.356,7.633,14.984,14.984,0,0,1,.245,8.384,27.154,27.154,0,0,1-10.044,11.6,91.51,91.51,0,0,0-12.864,8.01,23.041,23.041,0,0,0-9.289,18.693,85.981,85.981,0,0,1-12.657-4.574c-2.257-1.041-4.492-2.114-6.892-3.306.044-.1.086-.211.13-.316a35.865,35.865,0,0,0,2.567-9.374,258.412,258.412,0,0,0,1.714-42.344,15.614,15.614,0,0,1,1.525-7.421,3.428,3.428,0,1,0-6.165-3,22.48,22.48,0,0,0-2.21,10.69,251.347,251.347,0,0,1-1.663,41.191,28.991,28.991,0,0,1-2.08,7.58,126.713,126.713,0,0,0-7.266,24.54,38.937,38.937,0,0,0,.872,18.41,67.18,67.18,0,0,1,1.961,8.918,4.018,4.018,0,0,1-3.98,4.613H118.391a6.448,6.448,0,0,1-6.381-5.409c-1.181-7.112-2.654-13.413-2.817-14.105-3.175-15.538-1.112-23.623-.076-26.379a32.816,32.816,0,0,0,2.092-8.632A55.539,55.539,0,0,0,109.2,216.5a34.486,34.486,0,0,1-1.072-5.041c-1.708-12.9-.818-27.3-.135-34.737a3.428,3.428,0,0,0-6.827-.626c-.709,7.721-1.631,22.7.165,36.263a41.324,41.324,0,0,0,1.284,6.049c.21.726.447,1.625.682,2.653-2.724-.35-5.406-.633-7.811-.819-10.211-.79-45.041-5.159-64.55-28.181A54.21,54.21,0,0,1,20.114,171.8a44.283,44.283,0,0,0,22.548,16.152c17.948,5.976,36.551.924,49-4.364a3.428,3.428,0,0,0-2.682-6.31c-11.357,4.826-28.237,9.468-44.15,4.17-26.372-8.779-26.812-34.4-26.818-35.49A99.333,99.333,0,0,1,28.187,104.889Z"/><path d="M241.2,237.973q.987.342,2.024.657a3.428,3.428,0,1,0,1.987-6.561q-.9-.274-1.767-.574a3.428,3.428,0,1,0-2.244,6.478Z"/><path d="M167.425,163.184c-.71-.092-1.42-.2-1.435-.208a3.428,3.428,0,0,0-1.077,6.771s1.926.265,2.075.265a3.428,3.428,0,0,0,.437-6.828Z"/><path d="M109.108,163.2a21.989,21.989,0,0,0,3.573-1.524,3.428,3.428,0,0,0-3.405-5.951l-1.873,1.071a3.429,3.429,0,0,0,1.7,6.4Z"/><path d="M124.42,150a23.093,23.093,0,0,0,3.469-1.383,3.428,3.428,0,1,0-3.2-6.065l-1.874.988a3.428,3.428,0,0,0,1.6,6.46Z"/><path d="M141.468,153.671c.261,0,2.88-.586,2.88-.586a3.428,3.428,0,0,0-1.576-6.673l-2.089.494a3.428,3.428,0,0,0,.785,6.765Z"/><path d="M151.4,139.3a3.481,3.481,0,0,0,.406-.024l2.088-.247a3.428,3.428,0,0,0-.8-6.809l-2.089.248a3.428,3.428,0,0,0,.4,6.832Z"/><path d="M164.249,150.229l2.317.284a3.524,3.524,0,0,0,.421.026,3.428,3.428,0,0,0,.413-6.831l-2.317-.285a3.428,3.428,0,0,0-.834,6.806Z"/><path d="M183.222,143.9l2.085.994a3.428,3.428,0,1,0,2.953-6.187l-2.084-1a3.428,3.428,0,0,0-2.954,6.188Z"/><path d="M187.807,152.734a3.428,3.428,0,0,0,.438,4.828l1.578,1.316a3.428,3.428,0,0,0,4.39-5.266l-1.578-1.316A3.429,3.429,0,0,0,187.807,152.734Z"/><path d="M207.117,161.088a3.428,3.428,0,0,0,4.83-4.865l-1.325-1.315a3.428,3.428,0,0,0-4.83,4.865Z"/><path d="M220.726,178.551a3.428,3.428,0,1,0,5.36-4.276l-1.049-1.315a3.428,3.428,0,0,0-5.36,4.276Z"/><path d="M161.3,96.249a3.324,3.324,0,0,0,3.088-3.737q-.082-.873-.179-1.744a3.428,3.428,0,1,0-6.814.752q.091.819.168,1.64C157.728,94.934,158.89,96.249,161.3,96.249Z"/><path d="M210.684,110.693q.576-.6,1.184-1.172a3.427,3.427,0,1,0-4.673-5.015q-.756.7-1.469,1.451a3.3,3.3,0,0,0,.111,4.847A4.581,4.581,0,0,0,210.684,110.693Z"/><path d="M283.183,232.31l1.412.416a3.428,3.428,0,1,0,1.938-6.576l-1.412-.416a3.428,3.428,0,1,0-1.938,6.576Z"/></svg>
