<?xml version="1.0"?>
<svg xmlns="http://www.w3.org/2000/svg" id="outline" viewBox="0 0 340 340" width="512" height="512"><path d="M178.171,149.327A3.428,3.428,0,0,0,179.755,156a17.18,17.18,0,0,1,12.975,2.046c4.364,2.533,15.962,8.462,29.4,8.817h.093a3.428,3.428,0,0,0,.088-6.854c-11.861-.314-22.231-5.625-26.14-7.893a24.037,24.037,0,0,0-18-2.788Z"/><path d="M236.35,164.753a3.434,3.434,0,0,0,1.129-.192c.494-.172.977-.347,1.454-.525a3.428,3.428,0,0,0-2.393-6.424c-.433.161-.871.319-1.318.475a3.429,3.429,0,0,0,1.128,6.666Z"/><path d="M82.01,206.646l-.884.381a3.427,3.427,0,1,0,2.732,6.287l.836-.359a3.428,3.428,0,0,0-2.684-6.309Z"/><path d="M304.3,10.126a38.693,38.693,0,0,0-29.11,7.2c-12.92,9.5-23.236,23-24.028,24.044l-17.792,21.66A20.182,20.182,0,0,0,228.787,73.7c-.642,6.041,1.731,10.731,6.682,13.207,5.17,2.584,8.958,1.8,11.225.695a12.69,12.69,0,0,0,5.825-6.443,26.589,26.589,0,0,1,13.127-.98,34.066,34.066,0,0,1,5.251,11.64c.633,2.827-.222,6.973-2.17,9.117a9.625,9.625,0,0,1-7.987,3.142,69.125,69.125,0,0,1-29.533-9.545c-.082-.048-.165-.093-.25-.134-1.258-.615-31.3-14.79-71.688,6.948a425.481,425.481,0,0,0-39.515,21.765,151.373,151.373,0,0,0-45.831,44.455c-.435.657-.87,1.32-1.3,1.991a143.892,143.892,0,0,1-14.886,19.208c-6.854,7.507-13.4,14.553-19.45,20.941a129.412,129.412,0,0,0-18.364,24.736c-.125.179-.256.357-.377.537a3.424,3.424,0,0,0-.414.9c-8.845,16.177-15.257,37.342-8.969,60.568.543,2.5,7.242,30.065,37.4,33.613a46.4,46.4,0,0,0,5.409.314c9.86,0,19.558-3.094,26.259-8.541a3.519,3.519,0,0,0,1.335-3.249,3.432,3.432,0,0,0-4.02-2.866c-1.082.2-26.465,4.55-37.379-23.688-.362-3.994-2.045-33.352,24.385-50.513A57.646,57.646,0,0,1,76,235.526a217.491,217.491,0,0,1,43.687-10.387,3.5,3.5,0,0,0,3.127-3.1A3.435,3.435,0,0,0,119,218.317a224.393,224.393,0,0,0-45.25,10.734,64.5,64.5,0,0,0-13.931,6.712,58.611,58.611,0,0,0-23.906,30.32c1.378-10.745,6.432-23.534,19.825-35.564a104.335,104.335,0,0,1,16.115-11.163,3.494,3.494,0,0,0,1.662-4.072,3.431,3.431,0,0,0-4.972-1.934,109.087,109.087,0,0,0-17.387,12.069c-18.1,16.258-22.189,34.06-22.432,46.131a57.507,57.507,0,0,0,3.918,22.627c7.33,19.294,20.87,25.8,31.218,27.817a39.367,39.367,0,0,1-15.495,1.253c-26.344-3.1-31.3-27.23-31.5-28.247-.017-.09-.038-.179-.062-.267-5.762-21.188-.168-40.474,8.255-55.721.056-.071.125-.125.176-.2,7.269-10.784,24.312-21.7,25.983-22.757,2.678-1.333,30.7-15.636,45.05-37.429,7.8-11.844,19.084-22.374,25.209-27.669a3.551,3.551,0,0,0,.612-4.8,3.428,3.428,0,0,0-4.956-.5c-6.363,5.488-18.277,16.581-26.591,29.205-13.718,20.831-43.286,35.59-43.893,35.982C51.76,205.4,57.174,199.55,62.8,193.388A150.746,150.746,0,0,0,78.4,173.257q.62-.962,1.242-1.9a144.546,144.546,0,0,1,43.773-42.444,417.513,417.513,0,0,1,38.87-21.4c.056-.026.111-.054.165-.083,36.06-19.447,63.543-7.748,65.407-6.909a76.026,76.026,0,0,0,32.328,10.4,16.551,16.551,0,0,0,7.909-1.285c-2.639,3.17-6.783,5.126-12.376,5.792a44.313,44.313,0,0,1-17.72-3.684A61.985,61.985,0,0,0,211.35,106c-.347.007-.7.016-1.057.027a3.568,3.568,0,0,0-3.533,3.349,3.411,3.411,0,0,0,3.536,3.51q.6-.019,1.193-.031a55.037,55.037,0,0,1,23.694,5.129,51.068,51.068,0,0,0,19.992,4.292c.553,0,.886-.014.956-.017s.152-.01.228-.019c8.244-.946,14.334-4.189,18.1-9.64,6.243-9.039,3.484-20.708,3.3-21.441a39.07,39.07,0,0,0-4.207-11.249,11.436,11.436,0,0,0,8.412-12.029,17.76,17.76,0,0,0-1.305-5.58,3.519,3.519,0,0,0-4.029-2.12,3.431,3.431,0,0,0-2.309,4.734,10.887,10.887,0,0,1,.81,3.522,4.654,4.654,0,0,1-3.7,4.937,18.4,18.4,0,0,1-3.446.291,33.284,33.284,0,0,0-14.578.133,8.331,8.331,0,0,0-2.44-4.122,3.56,3.56,0,0,0-4.7-.259,3.429,3.429,0,0,0-.035,5.218c1,.869.486,2.449.411,2.66-.024.063-.032.127-.052.19s-.043.095-.057.147c-.054.173-.952,2.976-2.977,3.866-1.26.553-2.949.309-5.022-.727-1.594-.8-3.368-2.239-2.931-6.351a13.364,13.364,0,0,1,3.067-7.037L254.9,47.632a27.8,27.8,0,0,0,9.371,1.545,47.237,47.237,0,0,0,17.753-3.961c.965,5.023,3.557,13.107,10.5,21.932,9.569,12.156,6.042,36.5,6,36.746-.011.073,0,.143-.011.216s-.025.137-.027.208a57.377,57.377,0,0,1-1.9,13.551c-.034.114-.2.7-.423,1.711a39.358,39.358,0,0,1-5.379,11.674,59.968,59.968,0,0,0-3.29-10.618,37.512,37.512,0,0,1,6.113-7.322,3.542,3.542,0,0,0,.489-4.78,3.428,3.428,0,0,0-4.978-.406,44.329,44.329,0,0,0-7.541,8.988,6.322,6.322,0,0,0-.96,2.969l0,.048a6.654,6.654,0,0,0,.509,3.01c9.242,22.338-.2,39.217-3.379,43.932a33.252,33.252,0,0,0-4.562,9.605,37.083,37.083,0,0,0,1.346,23.189c4.249,12.567,3.382,22.493-2.507,28.709a3.783,3.783,0,0,1-3.766,1.033,3.824,3.824,0,0,1-2.8-2.773,18.233,18.233,0,0,1,.821-12.049,23.589,23.589,0,0,0,.531-18.371q-.461-1.149-.851-2.277a46.538,46.538,0,0,1-.525-27.8c3.422-12.333,2.592-21.862,1.65-26.872a4.339,4.339,0,0,0-4.749-3.5h0a4.329,4.329,0,0,0-3.568,2.729,28.448,28.448,0,0,1-9.268,11.868,3.533,3.533,0,0,0-.974,4.5,3.43,3.43,0,0,0,5.076,1,39.091,39.091,0,0,0,7.51-7.611,59.105,59.105,0,0,1-2.284,16.052c-.5,1.79-.9,3.583-1.218,5.374a3.407,3.407,0,0,0-.623.5,57.918,57.918,0,0,1-35.6,17.317,44.435,44.435,0,0,0-22.578,9.352,119.088,119.088,0,0,1-12.068,8.437c-.414-1.317-.863-2.648-1.389-4.01-12.146-31.461-15.522-41.932-15.555-42.034a3.428,3.428,0,0,0-6.53,2.088c.134.422,3.441,10.687,15.69,42.416,11.294,29.251-6.81,45.867-7.577,46.552-.075.067-.149.137-.219.211a152.378,152.378,0,0,0-16.736,21.716,17.7,17.7,0,0,0-2.807,9.877l.056,3.466a17.469,17.469,0,0,0,8.263,14.758,21.112,21.112,0,0,1,7.007,7.068,3.228,3.228,0,0,1-2.751,4.916h-9.979a6.486,6.486,0,0,1-5.727-3.584,47.867,47.867,0,0,0-8.828-11.591,8.131,8.131,0,0,1-2.393-5.77V280.487a8.189,8.189,0,0,1,1.329-4.45,89.667,89.667,0,0,0,9.5-19.588,39,39,0,0,0-4.944-35.091,21.384,21.384,0,0,1,3.392-4.791,3.371,3.371,0,0,0,.853-3.735,3.447,3.447,0,0,0-5.581-1.231,23.413,23.413,0,0,0-3.361,4.228,39.442,39.442,0,0,0-6.225-4.952,35.068,35.068,0,0,1,6.1-9.721,3.428,3.428,0,1,0-5.084-4.6,41.9,41.9,0,0,0-6.97,10.814q-1.767-.959-3.445-1.786l-1.012-2.648a11.257,11.257,0,0,1,1.623-10.906A50.772,50.772,0,0,1,140.5,177.76a3.535,3.535,0,0,0,1.783-4.448,3.428,3.428,0,0,0-4.669-1.772,57.552,57.552,0,0,0-19.58,16.265,18.136,18.136,0,0,0-3.574,14.063c-.3-.12-.625-.249-.91-.358a22.586,22.586,0,0,0-13.5-.906c-.019,0-.094.023-.113.029a3.408,3.408,0,0,0-2.35,4.4,3.587,3.587,0,0,0,4.283,2.186,15.788,15.788,0,0,1,9.226.694,97.96,97.96,0,0,1,17.3,8.651,32.445,32.445,0,0,1,7.887,7.07,3.3,3.3,0,0,0,.353.449,32.163,32.163,0,0,1,4.965,30.146,82.8,82.8,0,0,1-8.772,18.089,15.037,15.037,0,0,0-2.425,8.169v11.086a15.022,15.022,0,0,0,4.444,10.66,41.009,41.009,0,0,1,7.548,9.86,13.32,13.32,0,0,0,11.812,7.281h9.7a10.355,10.355,0,0,0,8.91-4.862,9.972,9.972,0,0,0-.035-10.5,27.887,27.887,0,0,0-9.274-9.331,10.785,10.785,0,0,1-4.982-9.02l-.056-3.467a10.877,10.877,0,0,1,1.716-6.054,145.515,145.515,0,0,1,15.875-20.634c1.743-1.646,17.318-17.248,12.437-43.07a124.539,124.539,0,0,0,14.571-10.013,37.564,37.564,0,0,1,5.631-3.676c.186,9.379-.312,23.738-4.023,36.534a25.364,25.364,0,0,1-4.3,8.4l-4.061,5.288a39.427,39.427,0,0,0-8.171,24.462,54.472,54.472,0,0,0,1.164,10.9c.091.47,2.41,11.554,18.548,17.791a10.389,10.389,0,0,1,4.361,4.8,3.8,3.8,0,0,1-.149,3.54,4.741,4.741,0,0,1-3.725,2.048h-7.467a6.944,6.944,0,0,1-5.962-3.364,60.832,60.832,0,0,0-10.862-13.439,9.9,9.9,0,0,1-3.19-7.1,147.487,147.487,0,0,0-1.559-19.363,3.428,3.428,0,1,0-6.779,1.024,140.5,140.5,0,0,1,1.482,18.435,16.777,16.777,0,0,0,5.359,12.009,53.91,53.91,0,0,1,9.651,11.931,13.828,13.828,0,0,0,11.86,6.725h7.4a11.182,11.182,0,0,0,8.55-3.8,10.717,10.717,0,0,0,1.605-11.549,16.873,16.873,0,0,0-7.833-8.191c-.051-.022-.1-.044-.154-.064-12.486-4.781-14.338-12.465-14.421-12.834a47.809,47.809,0,0,1-1.02-9.609,32.528,32.528,0,0,1,6.753-20.186l4.061-5.288a32.189,32.189,0,0,0,5.448-10.663c4.33-14.93,4.559-31.663,4.22-41.264a37.727,37.727,0,0,1,6.686-1.414A65.368,65.368,0,0,0,256.725,180a50.66,50.66,0,0,0,2.759,16.393c.3.863.624,1.732.964,2.581A16.792,16.792,0,0,1,260,212.034a24.92,24.92,0,0,0-1.19,16.481,10.731,10.731,0,0,0,7.717,7.73,11.138,11.138,0,0,0,2.811.365,10.485,10.485,0,0,0,7.666-3.317c5.42-5.721,10.509-16.57,3.975-35.767-.033-.1-.077-.207-.119-.3a30.474,30.474,0,0,1-1.067-18.707,26.427,26.427,0,0,1,3.643-7.611,52.51,52.51,0,0,0,8.471-30.352,35.241,35.241,0,0,0,3.206-3.595,71.751,71.751,0,0,0,1.157,8.7,49.491,49.491,0,0,0,9.862,21.187,129.823,129.823,0,0,0,8.771,9.864c8.256,8.436,7.017,22.28,6.44,26.321a4.318,4.318,0,0,1-3.356,3.63,4.272,4.272,0,0,1-4.591-1.693c-1.88-2.677-2.934-6.351-3.131-10.922a25.209,25.209,0,0,0-8.109-17.252c-2.29-2.116-4.411-3.977-6.3-5.531-.822-.675-2.054-1.889-2.8-2.65a3.43,3.43,0,0,0-5.024.129,3.655,3.655,0,0,0,.172,4.721,34.321,34.321,0,0,0,3.308,3.107c1.788,1.468,3.8,3.237,5.99,5.258a18.3,18.3,0,0,1,5.913,12.513c.255,5.9,1.726,10.8,4.371,14.568a11.105,11.105,0,0,0,9.121,4.737,11.485,11.485,0,0,0,2.678-.318A11.2,11.2,0,0,0,328.133,204c.883-6.187,1.838-21.7-8.328-32.086a122.8,122.8,0,0,1-8.306-9.338,42.626,42.626,0,0,1-8.5-18.235c-2.759-14.092.11-24.319.169-24.527l0-.015c.006-.018.014-.034.019-.052a64.068,64.068,0,0,0,2.14-14.987c.357-2.48,3.661-27.772-7.42-41.848-8.295-10.537-9.426-19.752-9.58-22.161,2.519-5.33,6.382-8.525,11.5-9.489a9.1,9.1,0,0,1,8.867,3.72q.346.456.713.862c4.409,4.9,12.1,5.707,17.881,1.871.348-.231.677-.47.99-.715a10.748,10.748,0,0,0,3.009-13.1,11.282,11.282,0,0,0-4.308-4.675A78.645,78.645,0,0,0,311.553,12,43.656,43.656,0,0,0,304.3,10.126ZM325.5,28.388a3.787,3.787,0,0,1-1.447,3.214q-.258.2-.545.394a6.966,6.966,0,0,1-9-.743c-.119-.133-.235-.272-.346-.419a15.912,15.912,0,0,0-15.6-6.315c-5.086.958-11.95,4.012-16.311,13.034-3.112,1.568-13.472,6.256-22.669,4.3,3.923-4.674,11.313-12.856,19.673-19a31.788,31.788,0,0,1,23.91-5.965,36.819,36.819,0,0,1,6.109,1.584,72.274,72.274,0,0,1,14.38,6.754A3.929,3.929,0,0,1,325.5,28.388Z"/><path d="M174.588,112.733a154.713,154.713,0,0,0-44.1,22.684,3.428,3.428,0,0,0,4.09,5.5,148.05,148.05,0,0,1,42.194-21.688,3.428,3.428,0,0,0-2.185-6.5Z"/><path d="M192.929,114.854a3.435,3.435,0,0,0,.649-.062q1.172-.225,2.312-.418a3.428,3.428,0,1,0-1.153-6.758q-1.208.206-2.449.443a3.428,3.428,0,0,0,.641,6.8Z"/><path d="M258.971,55.361l-1.119.839a3.428,3.428,0,0,0,4.113,5.485l1.118-.839a3.428,3.428,0,0,0-4.112-5.485Z"/><path d="M143.931,188.072l-.471.26a3.428,3.428,0,1,0,3.352,5.98l.39-.215a3.428,3.428,0,1,0-3.271-6.025Z"/></svg>
