<?xml version="1.0"?>
<svg xmlns="http://www.w3.org/2000/svg" id="outline" viewBox="0 0 340 340" width="512" height="512"><path d="M15.089,125.232v0c5.889,42.777,36.842,54.781,79.928,67.071,9.967,2.843,19.448,8.509,29.487,14.507,3.526,2.108,7.169,4.277,10.949,6.405a7.164,7.164,0,0,1-2.459,3.838l-.346.277a7.288,7.288,0,0,1-5.012,1.56c-6.13-.368-17.916.182-27.98,7.962a19.429,19.429,0,0,1-8.71,3.973c-1,.164-1.991.284-2.961.355A12.827,12.827,0,0,0,76.216,244.8c.677,10.491.475,25.292-4.295,36.438-4.231,6.605-8.759,21.02,3.386,30.179,1.265,1.022,8.257,5.756,24.053.562,13.061-4.294,20.516,1.395,20.8,1.62a3.338,3.338,0,0,0,3.864.324,3.377,3.377,0,0,0,1.694-3.487c-.944-6.309-6.96-18.337-22.964-18.7a7.611,7.611,0,0,1-7.15-5.365,25.25,25.25,0,0,1-1-5.374,19.615,19.615,0,0,1,10.494-3.638,9.035,9.035,0,0,1,7.674,3.6A13.088,13.088,0,0,0,104,282.44a3.428,3.428,0,0,0,3.369,5.971,6.214,6.214,0,0,1,6.8.439c.862.651,2.5,2.42,4.948,1.665a3.224,3.224,0,0,0,2.1-2.849q.051-.546.072-1.065a15.353,15.353,0,0,0-4.558-11.51,15.9,15.9,0,0,0-11.98-4.581,26.638,26.638,0,0,0-9.575,2.293,37.331,37.331,0,0,1,3.269-9.163,22.02,22.02,0,0,1,20.942-12,107.044,107.044,0,0,1,19.337,2.735,24.321,24.321,0,0,0,15.112-1.2,14.819,14.819,0,0,0,3.234,12.227,110.728,110.728,0,0,1,20.568,38.913,11.021,11.021,0,0,0,19.032,3.857c4.529-1.238,11.969-1.546,22.244,3.617a3.854,3.854,0,0,0,3.514-.261,3.429,3.429,0,0,0,1.427-3.223,22.973,22.973,0,0,0-8.525-14.206,3.428,3.428,0,0,0-4.19,5.427,15.572,15.572,0,0,1,2.85,2.866,36.662,36.662,0,0,0-13.864-1.741c2.838-6.188,8.379-12.514,19.228-13.929a3.428,3.428,0,0,0,1.864-5.934c-.153-.138-14.513-12.869-30.845.78a47.414,47.414,0,0,1-5.062-15.62,15.817,15.817,0,0,1,6.883-14.858,68.285,68.285,0,0,0,20.588-22.155,78.5,78.5,0,0,0,17.679-5.764c4.751-2.218,10.248-4.422,16.336-6.553a34.191,34.191,0,0,1,7.483,5.214,7.921,7.921,0,0,1,.772,10.742,29.925,29.925,0,0,1-6.167,5.882,11.266,11.266,0,0,1-9.988,1.566,15.27,15.27,0,0,1-6.7-4.337,3.428,3.428,0,0,0-5.864,3.175c.123.462,3.181,11.407,16.149,18.967a13.4,13.4,0,0,0,6.771,1.827,13.7,13.7,0,0,0,10.31-4.684c3.261-3.728,8.319-9.3,13.9-14.685a20.769,20.769,0,0,0,1.026-29.085,43.7,43.7,0,0,0-3.2-3.155q3.441-1.614,6.6-3.45a84.33,84.33,0,0,0,8.7,9.909,7.223,7.223,0,0,1,.924,9.439,51.656,51.656,0,0,0-8.436,19.369,3.306,3.306,0,0,1-2.721,2.564,3.428,3.428,0,1,0,1.015,6.78,10.19,10.19,0,0,0,8.409-7.906,44.864,44.864,0,0,1,7.308-16.817,14.037,14.037,0,0,0-1.725-18.349,76.927,76.927,0,0,1-7.664-8.681c18.589-12.908,29.055-31.172,34.8-45.684a68.077,68.077,0,0,0,4.265-16.646c5.074-31.37,3.61-57.206-4.351-76.789A69.04,69.04,0,0,0,295.042,31.5a29.114,29.114,0,0,0-24.095-5.129c-21.176,4.858-37.08,2.724-44.675,1.02A16.847,16.847,0,0,0,211.3,31.346a32.55,32.55,0,0,0-5.86,7.032l-.014.017a30.085,30.085,0,0,0-4.333,14.466,3.429,3.429,0,0,0,3.372,3.483h.056a3.428,3.428,0,0,0,3.427-3.373,18.063,18.063,0,0,1,.143-1.942,9.375,9.375,0,0,0,3.342,1.458c.742.16,1.553.332,2.392.508-.092.661-.175,1.372-.23,2.094a3.429,3.429,0,0,0,3.159,3.677c.089.007.177.011.264.011a3.428,3.428,0,0,0,3.414-3.169c.032-.419.078-.832.129-1.235,1.556.308,3.167.62,4.817.929-.064.52-.127,1.08-.186,1.71a3.427,3.427,0,0,0,3.094,3.733c.109.01.216.015.323.015a3.429,3.429,0,0,0,3.409-3.109c.038-.411.079-.785.12-1.141,1.393.235,2.782.462,4.151.673-.041.586-.075,1.21-.093,1.84a3.426,3.426,0,0,0,3.322,3.53h.1a3.429,3.429,0,0,0,3.425-3.325c.011-.376.03-.749.052-1.116,1.588.185,5.1.5,5.4.525,1.35,1.808,3.666,6.174.255,11.794-.462.181-.925.362-1.4.54-.109-.343-.217-.7-.323-1.077a3.427,3.427,0,1,0-6.6,1.834c.132.477.27.924.407,1.354-1.325.368-2.7.708-4.121,1.025-.193-.55-.389-1.147-.565-1.765a3.428,3.428,0,0,0-6.594,1.88c.11.386.227.762.345,1.13-1.57.22-3.2.392-4.862.533-.185-.648-.38-1.425-.562-2.359a3.428,3.428,0,1,0-6.729,1.309c.094.487.193.944.293,1.375-.25,0-.489.017-.741.018a8.347,8.347,0,0,0-5.121,1.727c-.275-.737-.544-1.512-.8-2.331a3.428,3.428,0,0,0-6.553,2.016A45.686,45.686,0,0,0,210.207,89.3l0,.006a27.309,27.309,0,0,0,5.131,6.142,17.123,17.123,0,0,0,12.973,4.15c7.187-.712,24.959-2.035,39.661.388a39.333,39.333,0,0,1,.838,14.813,23.287,23.287,0,0,1-21.065,19.572c-8.244.713-21.742.37-39.255-5.316-34.909-11.333-75.615-2.653-93,1.054,0,0-26.721,6.351-40.325,1.156-7.765-2.965-20.436-10.425-18.052-27.072a15.758,15.758,0,0,1,3.325-7.812,21.527,21.527,0,0,1,9.723-6.628,27.47,27.47,0,0,1,21.588,1.83,129.981,129.981,0,0,1,16.162,9.994c.627.462,15.539,11.272,31.069,7.841a23.119,23.119,0,0,0,17.358-14.854,29.154,29.154,0,0,0-3.836-26.7,3.43,3.43,0,0,0-6.16,1.924,31.374,31.374,0,0,1-.778,5.1c-1.449,6.25-4.523,10.66-8.022,11.512-3.908.947-9.2-2.214-14.927-8.911a65.62,65.62,0,0,0-17.5-15.588C94.648,55.435,77.53,49.023,55.379,55.213A62.113,62.113,0,0,0,32.344,69.3c-10.031,9.627-21.168,27.144-17.256,55.926Zm173.2,120.218a22.652,22.652,0,0,0-9.789,21.317,55.459,55.459,0,0,0,8.23,22.182,3.427,3.427,0,0,0,5.314.438c6.708-7.027,12.842-7.913,17.315-7.03-10.856,4.659-15.4,14.1-17.237,20.061a4.149,4.149,0,0,1-7.926-.085,117.633,117.633,0,0,0-21.868-41.325,8.053,8.053,0,0,1-.488-9.7c.98-1.469,1.94-3.082,2.853-4.794a3.447,3.447,0,0,0,.28-.728,116.355,116.355,0,0,0,16.154-16.2,114.4,114.4,0,0,0,13.238,1.007c.509.009,1.016.014,1.524.014,2.671,0,5.327-.131,7.958-.374A63.319,63.319,0,0,1,188.289,245.45Zm68.44-185.4a37.866,37.866,0,0,1,6.9,2.525,66.064,66.064,0,0,1-6.348,3.906A16.4,16.4,0,0,0,256.729,60.05ZM227.641,92.772a10.223,10.223,0,0,1-7.761-2.467,20.545,20.545,0,0,1-3.928-4.743c-.453-.745.545-2.477,1.347-2.478,28.8-.024,46.669-11.92,52.546-16.559a14.674,14.674,0,0,0,9.543,2.231l3.447-.383a3.428,3.428,0,0,0-.757-6.814l-3.447.383a7.879,7.879,0,0,1-5.293-1.313l-1.68-1.141c-1.309-1.061-8.915-6.714-23.557-7.775-10.063-.73-26.389-4.028-35.225-5.929a2.519,2.519,0,0,1-1.807-1.491,2.392,2.392,0,0,1,.155-2.239A25.692,25.692,0,0,1,215.9,36.43a9.993,9.993,0,0,1,8.871-2.35c8.162,1.832,25.216,4.135,47.71-1.027a22.269,22.269,0,0,1,18.433,3.921c9.112,6.871,36.839,27.783,25.077,100.506,0,.023,0,.045,0,.067s-.012.041-.014.063a61.28,61.28,0,0,1-3.853,15.083c-6.714,16.951-20.278,39.37-46.8,50.5a74.808,74.808,0,0,1-10.509-9.36,80.562,80.562,0,0,1,18.8-12.456,14.548,14.548,0,0,0,7.884-8.838,17.884,17.884,0,0,0,.42-9.984,52.757,52.757,0,0,0,7.692-15.43c3.261-10.608,3.836-20.729-3.962-35.641a74.987,74.987,0,0,0-8.67-12.547c3.826-1.6,8.522-4.946,11.45-11.934a4.272,4.272,0,0,1,2.926-2.5,4.427,4.427,0,0,1,3.9.858,3.428,3.428,0,1,0,4.313-5.329,11.222,11.222,0,0,0-9.885-2.177,11.067,11.067,0,0,0-7.574,6.5c-3.4,8.111-9.948,9.071-11.247,9.183C255.585,90.67,237.262,91.82,227.641,92.772ZM57.272,61.8c37.586-10.5,58.975,18.562,59.864,19.8.057.08.117.158.181.232,7.738,9.094,15.091,12.872,21.852,11.227,5.064-1.232,9.168-5.485,11.649-11.919a21.961,21.961,0,0,1-.907,11.051,16.229,16.229,0,0,1-12.4,10.529c-12.462,2.749-25.4-6.576-25.549-6.684A137.039,137.039,0,0,0,94.918,85.5a34.352,34.352,0,0,0-27.006-2.221,28.666,28.666,0,0,0-12.76,8.743,22.608,22.608,0,0,0-4.82,11.2c-2.2,15.375,6.17,28.254,22.393,34.448,15.408,5.885,44.2-.855,44.2-.855,1.813-.386,3.9-.83,6.2-1.3-.188,1.359-.379,2.9-.534,4.511a4.629,4.629,0,0,0,.336,2.268,3.185,3.185,0,0,0,3.019,2.15,3.429,3.429,0,0,0,3.411-3.127c.109-1.238.247-2.457.39-3.587a4.9,4.9,0,0,1,4.044-4.213c4.868-.824,10.245-1.6,15.963-2.191a122.261,122.261,0,0,0-1.7,26.316,3.428,3.428,0,0,0,3.425,3.325c.055,0,.11,0,.167,0a3.455,3.455,0,0,0,3.259-3.583,121.493,121.493,0,0,1,1.242-22.762,4.915,4.915,0,0,1,4.626-4.123c4.272-.2,8.653-.267,13.085-.136-.454,5.163-1.22,15.172-1.406,25.618a3.428,3.428,0,0,0,3.366,3.488h.062a3.427,3.427,0,0,0,3.426-3.367c.136-7.621.587-15.008.992-20.371a4.912,4.912,0,0,1,5.447-4.523,115.6,115.6,0,0,1,11.962,2.017c-.071,3.912-.15,11.47.061,19.749a3.427,3.427,0,0,0,3.425,3.34h.089a3.428,3.428,0,0,0,3.34-3.514c-.1-4.052-.136-7.927-.134-11.272a4.923,4.923,0,0,1,6.23-4.749c3.86,1.069,8.6,2.323,11.377,2.852-.018,1.905-.021,4.469.043,6.888a3.429,3.429,0,0,0,3.425,3.337h.093a3.428,3.428,0,0,0,3.336-3.517v-.057a4.9,4.9,0,0,1,5.245-5.019q3.436.254,6.781.256,3.72,0,7.322-.312A29.822,29.822,0,0,0,275.6,115.757a44,44,0,0,0,.412-6.845,52.442,52.442,0,0,1,3.562,5.746c6.736,12.882,6.328,21.2,3.483,30.449a45.836,45.836,0,0,1-4.8,10.6,22.386,22.386,0,0,0-3.533-3.285,3.485,3.485,0,0,0-4.421.143,3.432,3.432,0,0,0,.248,5.3c4.571,3.409,6.015,7.534,4.413,12.613a7.691,7.691,0,0,1-4.177,4.656,86.694,86.694,0,0,0-20.562,13.6,30.2,30.2,0,0,0-4.279-3.6,3.428,3.428,0,0,0-4.886,1.326,3.547,3.547,0,0,0,1.308,4.525,39.761,39.761,0,0,1,5.158,4.8c4.416,5.672,9.322,9.5,13.657,12.879a65.012,65.012,0,0,1,8.235,7.162,13.948,13.948,0,0,1-.718,19.532c-5.756,5.55-10.955,11.278-14.3,15.106a6.758,6.758,0,0,1-8.468,1.449,33.176,33.176,0,0,1-6.251-4.679,18.242,18.242,0,0,0,13.167-3.176,36.86,36.86,0,0,0,7.58-7.223,14.737,14.737,0,0,0-1.448-19.983,44.3,44.3,0,0,0-13.075-8.2,31.959,31.959,0,0,0-4.168-1.36,42.686,42.686,0,0,1-7.86-2.806c-6.329-3.073-9.427-10.4-7.053-16.682a12.12,12.12,0,0,1,8.478-7.327c.056-.01.111-.021.167-.034,19.252-4.464,22.87-18.1,23.014-18.676a3.428,3.428,0,0,0-6.643-1.695c-.112.415-2.93,10.2-17.869,13.68-1.169.239-10.048,2.337-13.56,11.628-.034.09-.055.183-.088.274-2.572.425-5.2.9-7.845,1.438a3.526,3.526,0,0,0-2.873,3.632,3.429,3.429,0,0,0,4.1,3.114c1.844-.376,3.672-.715,5.485-1.036a20.775,20.775,0,0,0,11.689,17.852,45.893,45.893,0,0,0,5.975,2.35c-3.327,1.307-6.442,2.633-9.3,3.968a74.447,74.447,0,0,1-33.071,6.787c-2.83-.049-5.643-.22-8.421-.485.955-1.3,1.91-2.625,2.867-4.021a112.309,112.309,0,0,0,8.174-13.924,37.813,37.813,0,0,1,3.619-5.934,3.572,3.572,0,0,0-.357-4.836,3.427,3.427,0,0,0-4.967.511,43.645,43.645,0,0,0-4.447,7.233,105.629,105.629,0,0,1-7.674,13.072c-11.115,16.2-22.048,25.254-29.26,29.994a17.234,17.234,0,0,1-13.555,2.387,113.721,113.721,0,0,0-20.7-2.95,28.864,28.864,0,0,0-27.447,15.765c-6.041,12-5.112,21.746-3.268,27.807A14.453,14.453,0,0,0,102.6,298.588c6.572.151,10.547,2.832,12.928,5.709a33.606,33.606,0,0,0-18.31,1.171c-12.048,3.961-17.034,1-17.563.644a1.186,1.186,0,0,0-.173-.131c-10.3-7.715-2.021-20.686-1.668-21.226a3.552,3.552,0,0,0,.281-.518c5.427-12.435,5.694-28.549,4.962-39.877a6.023,6.023,0,0,1,5.432-6.34c1.174-.087,2.378-.231,3.575-.429a26.186,26.186,0,0,0,11.786-5.313c8.293-6.412,18.205-6.848,23.377-6.543a14.1,14.1,0,0,0,9.706-3.051l.345-.276a14.085,14.085,0,0,0,5.207-12.323,61.122,61.122,0,0,0-16.7-36.606,3.413,3.413,0,0,0-1.182-.751c-2.363-.883-4.594-1.679-6.818-2.431a3.489,3.489,0,0,0-4.149,1.465,3.432,3.432,0,0,0,1.855,5c1.96.662,3.941,1.37,6.005,2.134a55.757,55.757,0,0,1,13.294,26.037c-2.3-1.339-4.562-2.681-6.771-4-10.436-6.236-20.292-12.126-31.124-15.215-32.386-9.238-56.378-17.752-68.045-39.088,9.708,8.788,26.135,17.909,53.8,22.186,1.81.28,3.627.584,5.4.9a3.56,3.56,0,0,0,4.143-2.54A3.428,3.428,0,0,0,89.473,163c-1.9-.344-3.84-.67-5.775-.969-54.3-8.4-61.5-36.426-61.828-37.826C15.234,74.993,55.605,62.3,57.272,61.8Z"/><path d="M100.835,172.451q.843.212,1.669.426a3.428,3.428,0,0,0,1.724-6.636q-.858-.224-1.732-.441a3.428,3.428,0,1,0-1.661,6.651Z"/><path d="M304.328,94.759a3.428,3.428,0,0,0,5.459-4.148q-.774-1.02-1.558-1.968A3.428,3.428,0,0,0,302.938,93Q303.636,93.849,304.328,94.759Z"/><path d="M272.6,40.3l-2.657,1.113A3.429,3.429,0,0,0,271.266,48a40.724,40.724,0,0,0,3.98-1.381A3.428,3.428,0,0,0,272.6,40.3Z"/><path d="M176.414,178.49q.161,0,.324-.015a3.429,3.429,0,0,0,3.093-3.734q-.079-.84-.144-1.7a3.428,3.428,0,0,0-6.837.516q.071.925.155,1.828A3.429,3.429,0,0,0,176.414,178.49Z"/><path d="M222.679,37.614a3.4,3.4,0,1,0,3.4,3.4A3.4,3.4,0,0,0,222.679,37.614Z"/></svg>
