<svg id="outline" height="512" viewBox="0 0 340 340" width="512" xmlns="http://www.w3.org/2000/svg"><path d="m159.131 243.873a27.311 27.311 0 0 0 4.191 7.708c10.935 14.118 33.5 14.393 41.64 13.992a15.272 15.272 0 0 0 -2.341-7.117 3.428 3.428 0 0 1 5.693-3.82 23.439 23.439 0 0 1 3.486 14.5v.023.015c-1.273 11.193-8.721 18.722-13.053 22.215a4.252 4.252 0 0 0 -1.519 4.215 4.156 4.156 0 0 0 2.664 3.075 41.166 41.166 0 0 1 21.365 16.714 6.791 6.791 0 0 0 7.674 2.673 27.5 27.5 0 0 1 21.022 2.424 1.613 1.613 0 0 0 1.219.158 1.587 1.587 0 0 0 1.141-1.824c-1.68-8.476-8.487-10.971-13.9-11.572a21.122 21.122 0 0 1 -16.032-10.22 19.618 19.618 0 0 1 -1.827-4.1 3.434 3.434 0 0 1 .3-2.59c4.938-8.942 13-16.959 18.891-22.11a20.791 20.791 0 0 0 7.083-16l-.059-4.012a37.169 37.169 0 0 0 -1.993-11.6c-4.386-12.709-16.215-33.9-46.193-33.108-13.939.374-24.679 3.914-31.923 10.523a3.428 3.428 0 0 1 -4.62-5.065c6.211-5.667 14.431-9.4 24.509-11.16 3.171-4.291 14.893-17.423 47.131-30.994l-.775-.927a3.428 3.428 0 0 1 5.258-4.4l7.153 8.553a3.428 3.428 0 0 1 -5.258 4.4l-1.771-2.118c-23.011 9.45-35.348 18.653-41.469 24.4.526-.023 1.047-.052 1.581-.067 30.719-.831 44.762 19.141 50.629 32.137a144.826 144.826 0 0 0 12.752-19.268c3.919-7.15 7.3-12.872 10.629-18.01.443-.684.887-1.38 1.329-2.082a3.428 3.428 0 1 1 5.805 3.647q-.687 1.095-1.381 2.165c-3.24 4.993-6.535 10.577-10.369 17.575a153.3 153.3 0 0 1 -15.948 23.415 44.315 44.315 0 0 1 1.779 11.882l.059 4.012a27.634 27.634 0 0 1 -9.426 21.262c-5.168 4.517-12.1 11.36-16.615 18.9.174.379.4.828.682 1.318a14.243 14.243 0 0 0 10.846 6.829c10.715 1.189 17.958 7.4 19.871 17.054a8.443 8.443 0 0 1 -12.415 8.991 20.682 20.682 0 0 0 -15.8-1.826 13.61 13.61 0 0 1 -15.317-5.535 34.366 34.366 0 0 0 -17.83-13.956 11.084 11.084 0 0 1 -3.231-19.112c2.936-2.369 7.636-6.991 9.682-13.561-10.072.394-33.718-.578-46.217-16.715a34.134 34.134 0 0 1 -3.29-5.176c-8.077 6.346-28.772 19.7-56.044 15.811a2.5 2.5 0 0 0 -2.778 1.765l-.251.863a3.428 3.428 0 0 1 -6.584-1.913l.251-.864a9.419 9.419 0 0 1 10.329-6.638c31.255 4.448 54-17.1 54.016-17.114 1.518-1.497 4.858-1.074 5.569 1.36z"/><path d="m116.129 294.519a11.426 11.426 0 0 0 -2.677 7.361 11.621 11.621 0 0 0 5.956 10.075 20.218 20.218 0 0 1 7.273 7.025 11.428 11.428 0 0 0 13.218 5.039 23.921 23.921 0 0 1 16.956.749 9.947 9.947 0 0 0 10.076-16.957 35.482 35.482 0 0 0 -11.544-5.952 3.828 3.828 0 0 1 -1.76-6.15 41.224 41.224 0 0 1 4.5-4.454c.04-.034.068-.076.106-.111a169.655 169.655 0 0 0 28.015-7.882 3.428 3.428 0 1 0 -2.429-6.411c-19.631 7.436-41.509 11.1-64.951 10.911-.515-.008-51.874-1.133-81.118-30.269a64.432 64.432 0 0 1 -15.108-67.034c7.105-19.9 22.745-33.566 46.486-40.614a101.432 101.432 0 0 1 29.283-4.016h.132c5.641 0 18-2.7 23.147-6.354 7.033-5 9.4-12.537 9.813-19.511 3.519 8.274 4.108 15.6 1.744 21.886-5.51 14.65-25.583 19.409-25.747 19.45-19.93 4.329-33.35 12.891-39.89 25.447a39.019 39.019 0 0 0 -4.246 15.171 55.281 55.281 0 0 1 -2.571-15.155 3.428 3.428 0 1 0 -6.853.212 61.8 61.8 0 0 0 12.809 36c.026.035.057.067.083.1s.033.042.051.062c7.07 9.2 20.1 14.506 33.029 14.506a42.31 42.31 0 0 0 16.68-3.283c13.983-6.022 22.644-16.232 26.5-31.281.035-.148 3.621-14.94 15.405-31.422 15.7-21.964 37.766-36.395 65.574-42.894 2.494-.4 23.062-4.392 29.059-27.338l2.126.334a21.671 21.671 0 0 0 3.359.261 21.993 21.993 0 0 0 13.164-4.374 20.891 20.891 0 0 0 8.281-14.153 29.179 29.179 0 0 0 .2-4.738 17.309 17.309 0 0 1 6.8 6.652 3.427 3.427 0 1 0 5.984-3.344 25.059 25.059 0 0 0 -16.229-11.9 3.428 3.428 0 0 0 -3.973 4.031 26.7 26.7 0 0 1 .42 8.43 14.085 14.085 0 0 1 -5.6 9.537 15.09 15.09 0 0 1 -11.341 2.822l-5.289-.831c-.022 0-.043 0-.065 0s-.041-.011-.062-.014a49.325 49.325 0 0 1 -10.735-2.923c-9.125-3.563-22.119-3.818-27.667-3.926-.839-.017-3.117-.117-3.586-.2-3.979-.7-6.863-3.006-8.815-7.056a2.729 2.729 0 0 1 .207-2.733 2.934 2.934 0 0 1 2.6-1.318l18.49.96h.171.006a21.829 21.829 0 0 0 9.971-2.27 21.289 21.289 0 0 0 5.354-3.86 3.428 3.428 0 0 0 -4.825-4.87 14.474 14.474 0 0 1 -3.631 2.616 14.114 14.114 0 0 1 -3.949 1.257c-.122-.99-.232-2.094-.278-3.113a3.428 3.428 0 1 0 -6.849.308c.043.948.13 1.936.232 2.866l-7.429-.386c-.154-.828-.306-1.831-.4-2.928a3.428 3.428 0 0 0 -6.831.587c.06.7.138 1.362.227 1.984a9.689 9.689 0 0 0 -6.641 2.236c-.222-.878-.425-1.8-.585-2.788a3.428 3.428 0 0 0 -6.766 1.108 38.352 38.352 0 0 0 4.866 13.543c2.906 5.875 7.633 9.544 13.689 10.606.874.153 3.72.282 4.637.3 5.183.1 17.32.339 25.307 3.458a60.534 60.534 0 0 0 8.682 2.662c-5.33 19.195-22.593 21.633-23.353 21.731a3.1 3.1 0 0 0 -.367.065c-36.931 8.594-58.395 29.685-69.9 45.864-12.479 17.552-16.172 32.946-16.306 33.523-4.36 17.032-14.957 23.349-22.549 26.618-13.793 5.939-32.989 1.777-41.392-8.886-.931-2.518-5.51-16.379 1.2-29.264 5.555-10.665 17.419-18.039 35.292-21.923.97-.22 23.83-5.591 30.668-23.689 4.535-12 .854-26.37-10.939-42.7a3.429 3.429 0 0 0 -6.025 3.111c.071.207 6.869 20.77-4.965 29.174-3.522 2.5-14.321 5.173-19.256 5.088a109.258 109.258 0 0 0 -31.265 4.297h-.007-.012c-25.589 7.6-43.222 23.117-50.992 44.882a71.316 71.316 0 0 0 16.727 74.2c27.639 27.542 71.857 31.582 83.213 32.17zm30.139 6.665a10.639 10.639 0 0 0 7.09 7.224 28.66 28.66 0 0 1 9.327 4.786 3.09 3.09 0 0 1 -3.115 5.278 30.684 30.684 0 0 0 -21.764-.981 4.59 4.59 0 0 1 -5.28-2.094 27.089 27.089 0 0 0 -9.749-9.413 4.757 4.757 0 0 1 -2.469-4.1 4.65 4.65 0 0 1 1.39-3.307 36.159 36.159 0 0 0 3.441-4 202.023 202.023 0 0 0 22.131-1.662 10.656 10.656 0 0 0 -1.002 8.269z"/><path d="m154.947 226.7a3.426 3.426 0 0 0 4.42-1.991q.174-.458.363-.909a3.428 3.428 0 1 0 -6.323-2.651q-.236.561-.451 1.13a3.429 3.429 0 0 0 1.991 4.421z"/><path d="m259.36 151.409a3.425 3.425 0 0 0 4.465-1.889c5.945-14.657 1.794-30.377-.266-36.455a3.428 3.428 0 0 0 -6.493 2.2c1.416 4.176 5.628 18.8.406 31.678a3.427 3.427 0 0 0 1.888 4.466z"/><path d="m252.989 163.929a3.427 3.427 0 0 0 2.64-5.612l-2.491-3.014a3.428 3.428 0 0 0 -5.284 4.369l2.492 3.014a3.421 3.421 0 0 0 2.643 1.243z"/><path d="m254.976 35.193a3.428 3.428 0 1 0 0 6.856h2.3a3.428 3.428 0 0 0 0-6.856z"/><path d="m192.693 43.42a3.424 3.424 0 0 0 4.424-1.982c.463-1.215 1.045-2.489 1.67-3.745a10.9 10.9 0 0 0 2.682 2.448c.679.436 1.467.941 2.351 1.484l-1.335 3a3.428 3.428 0 1 0 6.263 2.787l1.1-2.473c1.55.749 3.262 1.489 5.122 2.181l-1.07 2.7a3.428 3.428 0 1 0 6.373 2.527l1.273-3.211c.513.124 1.028.248 1.558.36a36.855 36.855 0 0 1 4.286 1.182l-1.327 2.958a3.428 3.428 0 1 0 6.254 2.807l1.233-2.747a11.656 11.656 0 0 1 3.713 3.763c.029.062.07.114.1.173s.049.117.084.173c.265.431 6.6 10.563 16.559 11.63a16.438 16.438 0 0 0 1.727.093c5.11 0 10.051-2.454 14.713-7.313a5.538 5.538 0 0 0 1.056-1.658l.06-.133a3.428 3.428 0 1 0 -6.086-3.157c-.074.144-.144.292-.211.442-3.55 3.616-7.086 5.267-10.5 4.912-6.165-.643-10.786-7.359-11.406-8.3-.863-1.688-5.167-8.618-18.824-11.528a56.313 56.313 0 0 1 -19.359-8.419 4.027 4.027 0 0 1 -1.784-2.617 3.957 3.957 0 0 1 .62-3.048l.006-.008a38.907 38.907 0 0 1 4.639-5.576 13.4 13.4 0 0 1 13.609-3.156l16.145 5.217a29.875 29.875 0 0 0 11.8 1.344l4.613-.395a17.051 17.051 0 0 1 8.951 1.669l.727.355a28.717 28.717 0 0 0 7.864 2.484c8.563 1.438 28.658 8.51 30.327 43.043a3.48 3.48 0 0 0 .171.915c.1.3 9.563 30.121-7.751 73.6-.148.342-1.149 2.633-2.76 6.112a12.724 12.724 0 0 1 -1.817-1.548 19.322 19.322 0 0 0 -6.327-4.4 3.428 3.428 0 0 0 -2.729 6.29 12.5 12.5 0 0 1 4.1 2.846 19.462 19.462 0 0 0 8.149 5.114 28.847 28.847 0 0 1 9.886 5.825 20.53 20.53 0 0 1 7.008 19.586 13.53 13.53 0 0 1 -3.52 7 1.282 1.282 0 0 1 -1.619.264 1.44 1.44 0 0 1 -.765-1.623l.052-.294a14.79 14.79 0 0 0 -10.65-16.623 24.313 24.313 0 0 0 -10.641-.689 32.032 32.032 0 0 1 -7.139.266 12.7 12.7 0 0 1 -9.449-5.4 3.428 3.428 0 1 0 -5.686 3.829 19.6 19.6 0 0 0 14.563 8.405 39.031 39.031 0 0 0 8.774-.325c.071-.01.141-.022.211-.037a17.684 17.684 0 0 1 7.488.547 8.04 8.04 0 0 1 5.767 8.9l-.032.183a8.373 8.373 0 0 0 8.178 9.907 8.165 8.165 0 0 0 5.8-2.457 20.246 20.246 0 0 0 5.386-10.464 27.387 27.387 0 0 0 -9.252-26.168 37.9 37.9 0 0 0 -9.481-6.1c1.753-3.788 2.773-6.141 2.825-6.261.013-.031.026-.062.038-.093.356-.893.685-1.772 1.02-2.654a33.435 33.435 0 0 0 6.921 5.361c5.055 2.99 13.257 9.572 11.384 20.058q-.066.366-.164.715a3.428 3.428 0 1 0 6.6 1.865c.127-.449.234-.912.316-1.375 2.7-15.1-9.341-24.028-14.643-27.164a25.385 25.385 0 0 1 -6.511-5.343c-.448-.53-.858-1.073-1.249-1.617 12.413-37.979 5.572-63.807 4.384-67.724-2.131-40.229-28.087-47.695-36.016-49.027a21.873 21.873 0 0 1 -6.007-1.888l-.728-.355a23.934 23.934 0 0 0 -12.545-2.34l-4.614.395a23.014 23.014 0 0 1 -9.1-1.037l-16.146-5.217a20.239 20.239 0 0 0 -20.538 4.8 45.821 45.821 0 0 0 -5.466 6.564l-.011.019-.01.011a84.4 84.4 0 0 0 -7.637 14.16 3.428 3.428 0 0 0 1.982 4.42z"/><path d="m76.772 258.587a3.4 3.4 0 1 0 3.4-3.4 3.4 3.4 0 0 0 -3.4 3.4z"/><circle cx="68.217" cy="253.896" r="3.403"/><circle cx="215.57" cy="28.754" r="3.403"/></svg>