<?xml version="1.0" encoding="iso-8859-1"?>
<!-- Generator: Adobe Illustrator 19.0.0, SVG Export Plug-In . SVG Version: 6.00 Build 0)  -->
<svg version="1.1" id="Capa_1" xmlns="http://www.w3.org/2000/svg" xmlns:xlink="http://www.w3.org/1999/xlink" x="0px" y="0px"
	 viewBox="0 0 511.998 511.998" style="enable-background:new 0 0 511.998 511.998;" xml:space="preserve">
<g>
	<g>
		<path d="M476.735,165.166c-0.122-8.967-8.037-15.805-16.884-14.677c-2.056,0.26-50.702,6.785-81.28,41.961
			c-0.147,0.169-0.29,0.344-0.437,0.514c-11.449-0.182-22.955,4.075-31.672,12.792l-28.187,28.187l10.366-93.976
			c2.14-19.259-8.318-37.917-26.248-45.993c0.026-1.324,0.04-2.651,0.04-3.977c0-46.61-32.434-83.448-33.814-84.995
			c-5.965-6.677-16.418-6.665-22.372,0c-1.38,1.545-33.814,38.383-33.814,84.995c0,0.939,0.015,1.878,0.028,2.816
			c-19.546,7.245-31.365,26.778-29.103,47.141l10.367,93.988l-28.188-28.188c-8.275-8.276-19.464-13.011-31.689-12.812
			c-20.471-23.73-54.686-39.034-81.699-42.454c-8.841-1.131-16.762,5.708-16.884,14.677c-0.028,2.072-0.338,51.152,30.241,86.331
			c1.207,1.389,2.438,2.758,3.68,4.111c-0.668,10.342,2.3,20.919,9.04,29.627l66.795,86.313c5.57,7.197,9.575,15.693,11.583,24.571
			l9.626,42.573c9.605,42.477,47.659,73.307,90.484,73.307c42.231,0,79.611-29.719,89.999-71.268l11.464-45.858
			c2.04-8.16,5.633-15.709,10.68-22.438l65.59-87.455c6.54-8.721,9.342-19.288,8.562-29.586c1.176-1.285,2.342-2.583,3.485-3.898
			C477.072,216.319,476.763,167.238,476.735,165.166z M257.466,40.924c7.107,11.991,14.966,29.642,14.966,49.072h-30
			C242.433,70.693,250.341,52.972,257.466,40.924z M67.3,184.915c11.02,3.655,25.003,9.947,36.737,20.418
			c-0.147,0.143-0.299,0.278-0.444,0.423l-20.096,20.097C74.051,212.426,69.492,196.865,67.3,184.915z M410.447,266.98
			l-65.59,87.454c-7.458,9.944-12.769,21.101-15.784,33.162l-11.464,45.858c-7.032,28.128-32.642,48.544-60.894,48.544
			c-28.933,0-54.681-20.996-61.222-49.924l-9.626-42.573c-2.967-13.121-8.887-25.679-17.119-36.315l-66.795-86.313
			c-4.24-5.479-3.743-13.305,1.155-18.203l21.701-21.703c5.394-5.394,14.122-5.394,19.517,0l58.386,58.386
			c9.987,9.987,27.066,1.802,25.516-12.251l-15.051-136.45c-0.988-8.894,5.945-16.656,14.908-16.656h55.832
			c8.937,0,15.9,7.732,14.907,16.668l-15.049,136.438c-1.549,14.041,15.519,22.248,25.516,12.251l58.385-58.385
			c5.381-5.38,14.136-5.38,19.517,0l21.973,21.973C413.99,253.767,414.541,261.522,410.447,266.98z M428.502,225.854l-20.097-20.098
			c-0.143-0.143-0.292-0.275-0.437-0.415c11.677-10.382,25.676-16.679,36.718-20.358
			C442.489,196.927,437.929,212.452,428.502,225.854z"/>
	</g>
</g>
<g>
</g>
<g>
</g>
<g>
</g>
<g>
</g>
<g>
</g>
<g>
</g>
<g>
</g>
<g>
</g>
<g>
</g>
<g>
</g>
<g>
</g>
<g>
</g>
<g>
</g>
<g>
</g>
<g>
</g>
</svg>
