<svg id="Capa_1" enable-background="new 0 0 64 64" height="512" viewBox="0 0 64 64" width="512" xmlns="http://www.w3.org/2000/svg"><g id="_27-hiking_nature_travel_mountain_adventure"><path d="m25.9 36.76-1.08 6.17c-.059.129-.089.269-.09.41-.019.219-.102.428-.24.6l-4.12 5.31c-.414.365-.455.997-.09 1.411.183.208.443.33.72.339h.08l13-1c.286-.024.549-.169.72-.4.172-.229.237-.52.18-.8l-1.78-8.8c-.062-.299-.257-.553-.53-.69l-5.28-3.1c-.513-.281-1.355-.121-1.49.55zm-2.73 12.07 2.74-3.53c.361-.463.586-1.017.65-1.6 0-.12.07-.24.1-.37l.82-4.75 3.85 2.26 1.47 7.25zm29.31-6.7c-.309-.179-.691-.179-1 0l-6.48 4.1v-15.23c1.512.145 2.855-.963 3-2.475.017-.175.017-.35 0-.525.044-.985-.43-1.922-1.25-2.47-.489-.328-1.061-.512-1.65-.53h-.1v-6c0-.552-.448-1-1-1s-1 .448-1 1v6 .05h-6l-5.27-4c-1.668-1.291-3.916-1.545-5.83-.66-.123-.909-.379-1.795-.76-2.63-.53-1.258-1.558-2.24-2.84-2.71-1.515-.513-3.176-.368-4.58.4-1.925 1.175-3.273 3.099-3.72 5.31-1 4-2 9-2 9-.79 3.15 1.124 6.344 4.274 7.133.174.044.349.079.526.107.353.069.711.106 1.07.11 1.218-.017 2.393-.452 3.33-1.23l-1 6c-3.79 4.67-5.21 6.48-5.76 7.25l-3.68.87c-.457.113-.774.529-.76 1v3c0 .552.448 1 1 1h41c.552 0 1-.448 1-1v-11c-.003-.363-.202-.696-.52-.87zm-9.48 4.87h-3.22c-1.66-6.51-2.13-8.36-2.29-8.93l-.05-.17c.007-.04.007-.08 0-.12-.289-.796-.803-1.491-1.48-2l-4.63-2.72.8-4.65 2.72 1.94c.583.417 1.283.638 2 .63h6.15zm-21.13-15.07c-.93 1.54-2.43 3.54-4.67 3.09-2.148-.347-3.608-2.37-3.261-4.518.016-.101.037-.202.061-.302 0-.05 1-5 2-9 .32-1.655 1.312-3.103 2.74-4 .915-.518 2.01-.613 3-.26 2.13.71 2.38 4.28 2.34 4.84-.005.047-.005.093 0 .14-.333.425-.562.921-.67 1.45l-1.47 8.55zm29.13 21.07h-39v-1.22l3.24-.78c.282-.071.519-.26.65-.52.39-.59 3.86-4.91 6-7.53.11-.143.182-.312.21-.49l3.23-18.71c.12-.43.376-.809.73-1.08 1.312-1.051 3.178-1.051 4.49 0l5.53 4.21c.176.132.39.202.61.2h8.46c.235.018.459.109.64.26.151.185.227.421.21.66 0 .9-.32 1-1 1h-8.24c-.283 0-.559-.087-.79-.25l-4-2.87c-.289-.214-.671-.256-1-.11-.319.129-.549.412-.61.75l-1.19 6.9c-.056.4.133.794.48 1l5.23 3.07c.272.294.492.632.65 1 .12.44 1.54 6 2.48 9.72.05.171.139.328.26.46.29.28.31.3 4.66.29v.89c0 .552.448 1 1 1s1-.448 1-1v-1.3l6-3.79zm-20-34c2.761 0 5-2.239 5-5s-2.239-5-5-5-5 2.239-5 5 2.239 5 5 5zm0-8c1.657 0 3 1.343 3 3s-1.343 3-3 3-3-1.343-3-3 1.343-3 3-3z"/></g></svg>