<svg id="Layer_1" enable-background="new 0 0 96 96" height="512" viewBox="0 0 96 96" width="512" xmlns="http://www.w3.org/2000/svg"><g><path d="m80.62 58.241h5.034v2h-5.034z"/><path d="m79.865 62.603h4.867v2h-4.867z"/><path d="m86.7095 82.1653v-11.0053h-12.2471v11.0054h12.2471zm-10.2471-4.5024h3.124v2.5024h-3.124zm5.124 2.5024v-2.5024h3.123v2.5024zm3.1231-4.5024h-3.123v-2.5029h3.123zm-5.1231-2.5029v2.5029h-3.124v-2.5029z"/><path d="m86.7104 54.4549h-23.0312v-6.0042l1.3896 1.1687 1.2871-1.5303-9.0752-7.6333-9.0742 7.6333 1.2871 1.5303 1.3955-1.1738v6.0093h-23.039l-9.2939 14.4468h31.7256v-2h-28.0616l6.7217-10.4468h56.6768l6.7217 10.4468h-28.4551v2h32.1191zm-25.0312-4.8223v4.8223h-3.3984v-4.8223zm-4.3984-6.5635 4.3984 3.6995v.864h-8.79v-.8694zm-4.3916 6.5635h3.3916v4.8223h-3.3916z"/><path d="m32.666 58.241h5.034v2h-5.034z"/><path d="m42.175 58.241h5.034v2h-5.034z"/><path d="m51.686 58.241h5.034v2h-5.034z"/><path d="m61.197 58.241h5.034v2h-5.034z"/><path d="m70.707 58.241h5.034v2h-5.034z"/><path d="m27.307 62.603h4.867v2h-4.867z"/><path d="m36 62.603h4.867v2h-4.867z"/><path d="m44.692 62.603h4.867v2h-4.867z"/><path d="m62.078 62.603h4.867v2h-4.867z"/><path d="m70.77 62.603h4.867v2h-4.867z"/><path d="m40.5005 82.1653v-11.0053h-12.248v11.0054h12.248zm-10.2481-4.5024h3.124v2.5024h-3.124zm5.1241 2.5024v-2.5024h3.124v2.5024zm3.124-4.5024h-3.124v-2.5029h3.124zm-5.124-2.5029v2.5029h-3.124v-2.5029z"/><path d="m57.2856 79.0794c2.2744 0 4.125-1.8506 4.125-4.1255s-1.8506-4.1255-4.125-4.1255c-2.2754 0-4.126 1.8506-4.126 4.1255s1.8507 4.1255 4.126 4.1255zm0-6.251c1.1719 0 2.125.9536 2.125 2.1255s-.9531 2.1255-2.125 2.1255-2.126-.9536-2.126-2.1255.9542-2.1255 2.126-2.1255z"/><path d="m13.2598 79.7537c-.2805 4.5579-1.2126 9.166-2.7814 13.7231h-8.474v2h93.7285v-2h-5.6406v-22.7558h-2v14.9048h-18.083v2h1.0859v5.8511h-2.6768v-16.8248l2.4658 2.1528 1.3164-1.5059-14.915-13.0215-14.9228 13.0206 1.3145 1.5078 2.4746-2.1591v16.83h-2.7002v-5.8511h1.0859v-2h-18.0703v-14.8246h-2v22.6758h-2.6609c-1.5732-4.5459-2.509-9.1538-2.7906-13.7231h3.4965v-2h-19.0421l2.8623-4.9253h8.9219v-2h-7.7595l4.7957-8.252h-7.3292l7.5557-13.0083h-5.3428l8.959-15.4219 4.8865 8.4033h-4.6687v2h5.8318l2.9182 5.0186h-5.3525l3.8154 6.5601 1.7285-1.0059-2.0674-3.5542h5.3525l-12.4443-21.4024-12.4336 21.4023h5.3428l-7.5557 13.0084h7.3291l-8.8203 15.1772zm66.2436 13.7231h-2.2041v-5.8511h2.2041zm2-5.851h2.2041v5.8511h-2.2041zm6.5889 5.851h-2.3848v-5.8511h2.3848zm-14.9971-5.851h2.2041v5.8511h-2.2041zm-18.2305 5.851v-7.3032c0-1.335 1.0859-2.4209 2.4209-2.4209s2.4209 1.0859 2.4209 2.4209v7.3032zm-6.7128-18.5749 9.1338-7.969 9.1328 7.9733v18.5707h-4.7119v-7.3032c0-2.4375-1.9834-4.4209-4.4209-4.4209s-4.4209 1.9834-4.4209 4.4209v7.3032h-4.7129zm-15.1084 18.5749h-2.2041v-5.8511h2.2041zm2-5.851h2.2041v5.8511h-2.2041zm6.4082 5.851h-2.2041v-5.8511h2.2041zm-14.9844-5.851h2.3721v5.8511h-2.3721zm-6.8037 5.7817h-7.0439c1.4945-4.5341 2.3771-9.1161 2.6447-13.6538h1.7471c.269 4.5481 1.1537 9.1304 2.6521 13.6538z"/><path d="m17.447 70.828h1.953v2h-1.953z"/><path d="m10.546 56.724h7.122v2h-7.122z"/><path d="m19.313 56.724h1.465v2h-1.465z"/><path d="m12.65 42.55h1.761v2h-1.761z"/><path d="m28.5493 43.6297 12.2966-13.082 4.7141 5.8198 3.8867-4.6318 3.3057 3.894 4.5793-5.5387 19.7351 20.7706 1.4492-1.3779-29.2636-30.7998-22.1601 23.5757zm20.711-22.0337 6.6841 7.0349-3.2114 3.8845-3.296-3.8804-3.8496 4.5889-3.3588-4.1472z"/><path d="m15.4868 21.5525c3.4531 0 6.2627-2.8213 6.2627-6.2891s-2.8096-6.2891-6.2627-6.2891-6.2617 2.8213-6.2617 6.2891 2.8086 6.2891 6.2617 6.2891zm0-10.5781c2.3506 0 4.2627 1.9238 4.2627 4.2891s-1.9121 4.2891-4.2627 4.2891c-2.3496 0-4.2617-1.9238-4.2617-4.2891s1.9121-4.2891 4.2617-4.2891z"/><path d="m14.487.523h2v4.676h-2z"/><path d="m5.255 6.323h4.664v2.001h-4.664z" transform="matrix(.705 .709 -.709 .705 7.426 -3.22)"/><path d="m1.989 14.264h4.651v2h-4.651z"/><path d="m6.587 20.872h2.001v4.664h-2.001z" transform="matrix(-.709 -.705 .705 -.709 -3.404 45.003)"/><path d="m14.487 22.983h2v4.675h-2z"/><path d="m21.055 21.032h4.664v2h-4.664z" transform="matrix(-.705 -.709 .709 -.705 24.262 54.15)"/><path d="m24.334 13.091h4.651v2h-4.651z"/><path d="m22.387 3.818h2v4.664h-2z" transform="matrix(.709 .705 -.705 .709 11.145 -14.704)"/><path d="m64.2349 16.3714 3.1836 3.1767 3.1845-3.1767 2.4785 2.4721 1.4122-1.416-3.8907-3.8813-3.1845 3.1767-3.1836-3.1767-3.8907 3.8813 1.4121 1.416z"/><path d="m81.5483 7.6272 3.1836 3.1773 3.1846-3.1773 2.4785 2.4727 1.4121-1.416-3.8906-3.8819-3.1846 3.1773-3.1836-3.1773-3.8906 3.8819 1.4121 1.416z"/><path d="m84.7075 26.8011 2.5684-2.5625 1.8633 1.8579 1.4121-1.416-3.2754-3.2671-2.5684 2.5625-2.5683-2.5625-3.2754 3.2671 1.4121 1.416 1.8633-1.8579z"/></g></svg>