<svg height="512" viewBox="0 0 48 48" width="512" xmlns="http://www.w3.org/2000/svg"><g id="Icons"><path d="m44.746 20.51a9.157 9.157 0 0 0 -5.634-6.489 28.984 28.984 0 0 0 -6.175-1.676l-1.7-.212a6.056 6.056 0 0 0 -6.746-.71l-.163.086a4.134 4.134 0 0 1 -3.343.179c-.128-.044-.758-.227-.937-.267a27.531 27.531 0 0 1 3.666-3.621 7.42 7.42 0 0 1 6.907-1.333 7.193 7.193 0 0 1 4.821 4.824 1 1 0 1 0 1.92-.563 9.19 9.19 0 0 0 -6.148-6.171 9.408 9.408 0 0 0 -8.765 1.694 29.3 29.3 0 0 0 -4.365 4.411l-.578.71a6.322 6.322 0 0 0 -5.046 7.028c.021.158.056.308.082.463a8.632 8.632 0 0 0 -1.067.879 6.635 6.635 0 0 0 -.758.89 27.3 27.3 0 0 1 -1.136-4.711 7.241 7.241 0 0 1 8.294-8.226 1 1 0 1 0 .337-1.97 9.241 9.241 0 0 0 -10.612 10.487 29.089 29.089 0 0 0 1.567 6.024l.4 1.16a6.678 6.678 0 0 0 .194 3.032 6.445 6.445 0 0 0 4.471 4.382 7.223 7.223 0 0 0 1.7 3.4 26.9 26.9 0 0 1 -6.267-1.621 7.3 7.3 0 0 1 -4.509-5.337 7.085 7.085 0 0 1 1.933-6.5 1 1 0 0 0 -1.409-1.424 9.079 9.079 0 0 0 -2.48 8.325 9.293 9.293 0 0 0 5.739 6.8 27.349 27.349 0 0 0 7.238 1.793l3.5.2c.243.061.482.129.736.168a7.92 7.92 0 0 0 1.209.093 7.313 7.313 0 0 0 2.406-.416 18.927 18.927 0 0 0 3.9.779 27.583 27.583 0 0 1 -3.928 3.809 7.2 7.2 0 0 1 -6.892 1.159 7.121 7.121 0 0 1 -4.629-5.127 1 1 0 1 0 -1.948.451 9.111 9.111 0 0 0 5.917 6.564 9.29 9.29 0 0 0 3.071.524 9.181 9.181 0 0 0 5.724-2.005 28.97 28.97 0 0 0 4.92-4.977l.41-.532a5.86 5.86 0 0 0 2.906-1.37c2.215-2.013 2.071-5.3 1.9-6.642a8.532 8.532 0 0 0 1.585-1.983 27.4 27.4 0 0 1 1.466 5.659 7.238 7.238 0 0 1 -9.178 7.957 1 1 0 0 0 -.568 1.918 9.1 9.1 0 0 0 2.594.378 9.257 9.257 0 0 0 9.13-10.542 27.414 27.414 0 0 0 -2.065-7.264l-.343-.785a7.763 7.763 0 0 0 -2.175-7.122 7.567 7.567 0 0 0 -2.405-1.6 6.291 6.291 0 0 0 -.42-1.16 27.474 27.474 0 0 1 5.382 1.5 7.24 7.24 0 0 1 2.828 11.507 1 1 0 1 0 1.49 1.334 9.142 9.142 0 0 0 2.046-8.211zm-28.785-6.253a4.183 4.183 0 0 1 4.015-.8l.344.115a6.147 6.147 0 0 0 4.962-.307l.134-.072a4.121 4.121 0 0 1 4.683.577 4.29 4.29 0 0 1 1.251 4.748 9.832 9.832 0 0 1 -1.743 3.033 5.963 5.963 0 0 0 -.466-2.161 5.137 5.137 0 0 0 -4.475-3.248c-1.455-.077-4.238.522-6.6 5.046l-.1.2c-.09.064-.361.276-.4.319a5.247 5.247 0 0 0 -.873 1.257 8.445 8.445 0 0 1 -2.241-4.823 4.31 4.31 0 0 1 1.509-3.884zm4.81 11.761c-1.277-.268-2.223-.819-2.411-1.4-.155-.48.235-1.066.614-1.494 1.418-1.063 2.627-1.266 3.692-.625a5.459 5.459 0 0 1 2.145 3.335 7.909 7.909 0 0 1 -4.04.184zm3.1-5.127a4.477 4.477 0 0 0 -2.474-.753c-.094 0-.189 0-.287.009a4.569 4.569 0 0 1 3.479-2 3.158 3.158 0 0 1 2.711 2.032 4.36 4.36 0 0 1 -.745 4.453 7.257 7.257 0 0 0 -2.685-3.741zm-3.156 13.74a5.324 5.324 0 0 1 -4.586-4.606l-.016-.132a1.185 1.185 0 0 0 -.968-.926 4.388 4.388 0 0 1 -3.471-3.121 4.578 4.578 0 0 1 1.187-4.664c.09-.086.167-.15.248-.222a10.344 10.344 0 0 0 3.465 4.595c.009.007.021.009.031.016a5.106 5.106 0 0 0 3.757 2.4 10.392 10.392 0 0 0 2.1.211c.09 0 .182-.011.273-.013a14.278 14.278 0 0 0 4.1 2.214 11.31 11.31 0 0 1 -.5 1.3 5.209 5.209 0 0 1 -5.621 2.948zm11.421-.545c-1.126 1.024-3.073 1.266-5.674.749a7.282 7.282 0 0 0 1.689-2.31 13.337 13.337 0 0 0 .62-1.629 8.089 8.089 0 0 0 1.334.117 7.723 7.723 0 0 0 3.356-.775 5.139 5.139 0 0 1 -1.326 3.848zm3.277-8.429a5.979 5.979 0 0 1 -6.422 3.252 11.483 11.483 0 0 1 -3.4-1.247c.2-.073.676-.268.714-.29a4.994 4.994 0 0 0 1.524-1.144 7.561 7.561 0 0 0 .846-1.183 11.709 11.709 0 0 0 4.558-5.852 6.35 6.35 0 0 0 .3-1.339 5.588 5.588 0 0 1 .879.708 5.956 5.956 0 0 1 1 7.095z"/></g></svg>