<svg id="Capa_1" enable-background="new 0 0 512.346 512.346" height="512" viewBox="0 0 512.346 512.346" width="512" xmlns="http://www.w3.org/2000/svg"><path d="m380.262 31.062h-147.811v-7.466c0-12.472-9.68-23.109-22.143-23.58-13.103-.495-23.919 10.02-23.919 23.014v8.031h-147.811c-4.142 0-7.5 3.358-7.5 7.5v465.934c0 4.142 3.358 7.5 7.5 7.5h240.998c4.142 0 7.5-3.358 7.5-7.5 0-4.142-3.358-7.5-7.5-7.5h-233.498v-450.933h68.137c-.702 7.936.582 10.794 2.296 16.065h-46.868c-4.142 0-7.5 3.358-7.5 7.5v403.81c0 4.142 3.358 7.5 7.5 7.5h279.561c4.142 0 7.5-3.358 7.5-7.5v-403.809c0-4.142-3.358-7.5-7.5-7.5h-46.875c1.484-4.031 2.296-8.384 2.296-12.923v-3.143h68.138v450.934h-57.55c-4.142 0-7.5 3.358-7.5 7.5 0 4.142 3.358 7.5 7.5 7.5h65.05c4.142 0 7.5-3.358 7.5-7.5v-465.934c-.001-4.142-3.359-7.5-7.501-7.5zm-178.873-8.031c0-4.428 3.603-8.031 8.031-8.031s8.031 3.603 8.031 8.031v8.031h-16.063v-8.031zm88.236 23.031c-.111 13.936-7.925 25.643-22.5 25.643h-115.41c-14.575 0-22.702-12.457-22.5-25.643zm52.079 31.066v388.81h-264.561v-388.81h49.574c6.639 5.95 15.402 9.577 24.998 9.577h115.41c9.596 0 18.358-3.627 24.998-9.577z"/><path d="m158.301 255.931c0 4.142 3.358 7.5 7.5 7.5h152.336c4.143 0 7.5-3.358 7.5-7.5s-3.357-7.5-7.5-7.5h-152.336c-4.142 0-7.5 3.358-7.5 7.5z"/><path d="m165.801 294.49h124.25c4.143 0 7.5-3.358 7.5-7.5s-3.357-7.5-7.5-7.5h-124.25c-4.142 0-7.5 3.358-7.5 7.5s3.358 7.5 7.5 7.5z"/><path d="m165.801 356.839h124.25c4.143 0 7.5-3.358 7.5-7.5s-3.357-7.5-7.5-7.5h-124.25c-4.142 0-7.5 3.358-7.5 7.5s3.358 7.5 7.5 7.5z"/><path d="m318.137 310.861h-152.336c-4.142 0-7.5 3.358-7.5 7.5s3.358 7.5 7.5 7.5h152.336c4.143 0 7.5-3.358 7.5-7.5s-3.357-7.5-7.5-7.5z"/><path d="m318.137 372.817h-152.336c-4.142 0-7.5 3.358-7.5 7.5s3.358 7.5 7.5 7.5h152.336c4.143 0 7.5-3.358 7.5-7.5s-3.357-7.5-7.5-7.5z"/><path d="m290.05 403.876h-124.25c-4.142 0-7.5 3.358-7.5 7.5s3.358 7.5 7.5 7.5h124.25c4.143 0 7.5-3.358 7.5-7.5s-3.357-7.5-7.5-7.5z"/><path d="m138.563 249.463c-3.572-2.097-8.167-.902-10.265 2.669l-12.832 21.851-6.009-7.272c-2.638-3.193-7.366-3.644-10.559-1.004-3.193 2.638-3.643 7.366-1.004 10.559l12.833 15.531c3.27 3.957 9.578 3.569 12.249-.979l18.257-31.089c2.098-3.572.902-8.168-2.67-10.266z"/><path d="m138.563 311.602c-3.572-2.097-8.167-.903-10.265 2.669l-12.832 21.851-6.009-7.272c-2.638-3.192-7.366-3.644-10.559-1.004-3.193 2.638-3.643 7.366-1.004 10.559l12.833 15.531c3.27 3.957 9.578 3.569 12.249-.979l18.257-31.089c2.098-3.573.902-8.169-2.67-10.266z"/><path d="m138.563 373.726c-3.572-2.097-8.167-.902-10.265 2.669l-12.832 21.851-6.009-7.272c-2.638-3.192-7.366-3.644-10.559-1.004-3.193 2.638-3.643 7.366-1.004 10.559l12.833 15.531c3.27 3.957 9.578 3.569 12.249-.979l18.257-31.089c2.098-3.573.902-8.168-2.67-10.266z"/><path d="m204.141 207.721c3.533 2.922 7.065 2.922 10.598 0l36.165-36.101c18.04-17.523 4.431-50.423-20.989-50.423-7.826 0-15.088 3.029-20.475 8.202-5.387-5.173-12.649-8.202-20.475-8.202-25.14 0-38.486 32.79-21.029 50.382zm-29.783-56.329c.62-7.551 5.836-15.195 14.606-15.195 5.973 0 11.281 3.582 13.522 9.124 4.636 6.251 9.271 6.251 13.906 0 2.241-5.542 7.548-9.124 13.521-9.124 7.983 0 14.389 6.483 14.584 14.759.085 3.625-2.041 7.97-4.06 9.917-.031.03-.061.06-.092.09l-30.907 30.853-30.802-30.748c-2.272-2.479-4.525-6.674-4.278-9.676z"/><path d="m466.265 330.478v90.165h-31.909v-204.49h31.909v79.325c0 4.142 3.358 7.5 7.5 7.5 4.142 0 7.5-3.358 7.5-7.5v-141.06c.498-41.919-61.909-40.301-61.909 0v306.791c0 1.232.304 2.446.884 3.533l23.459 43.96c3.314 4.796 9.939 4.921 13.234-.001l23.449-43.96c.906-1.697.883-2.551.883-3.959v-32.619c0-.007.001-.013.001-.019s-.001-.013-.001-.019v-97.646c0-4.142-3.358-7.5-7.5-7.5-4.142-.001-7.5 3.357-7.5 7.499zm0-129.325h-31.906v-16.063h31.906zm-31.909-46.736c0-8.683 6.979-15.768 15.626-15.947 10.326 1.073 15.219 5.976 16.283 16.314v15.306h-31.909zm15.958 334.821-11.173-20.938h22.342zm15.951-35.938h-31.909v-17.657h31.909z"/></svg>