<svg id="&#x421;&#x43B;&#x43E;&#x439;_1" enable-background="new 0 0 100 100" viewBox="0 0 100 100" xmlns="http://www.w3.org/2000/svg"><path d="m2.5 100c-.653 0-1.292-.256-1.768-.732-.672-.672-.905-1.666-.602-2.566l7.045-20.904c-4.697-7.784-7.175-16.676-7.175-25.798 0-27.57 22.43-50 50-50s50 22.43 50 50-22.43 50-50 50c-9.121 0-18.014-2.478-25.797-7.176l-20.905 7.045c-.261.088-.53.131-.798.131zm22.02-12.421c.47 0 .937.133 1.343.392 7.22 4.598 15.566 7.029 24.137 7.029 24.813 0 45-20.187 45-45s-20.187-45-45-45-45 20.187-45 45c0 8.571 2.431 16.918 7.03 24.136.406.639.502 1.426.261 2.143l-5.812 17.242 17.243-5.811c.26-.088.529-.131.798-.131z"/><g><path d="m47.87 67.844c-1.381 0-2.5-1.119-2.5-2.5v-3.875c0-7.521 4.585-10.91 8.269-13.634 3.348-2.475 5.992-4.431 5.992-9.007 0-5.913-3.758-9.734-9.574-9.734-6.656 0-9.688 5.443-9.688 10.5 0 1.381-1.119 2.5-2.5 2.5s-2.5-1.119-2.5-2.5c0-7.703 5.045-15.5 14.688-15.5 8.581 0 14.574 6.059 14.574 14.734 0 7.098-4.447 10.386-8.02 13.028-3.487 2.578-6.242 4.614-6.242 9.613v3.875c.001 1.381-1.119 2.5-2.499 2.5z"/><circle cx="47.807" cy="74.906" r="2.5"/></g></svg>