<?xml version="1.0" encoding="UTF-8"?>
<svg xmlns="http://www.w3.org/2000/svg" width="512" height="512" viewBox="0 0 128 128"><g><path d="M127.348,16.137a1.759,1.759,0,0,0-1.471-.347L110.94,19.046a1.751,1.751,0,0,0-1.378,1.71V36.13H105.5a1.75,1.75,0,0,0-1.736,1.526l-2.842,22.079-6.664,1.429a1.752,1.752,0,0,0-1.306,1.2L85.833,85.5H77.938a1.753,1.753,0,0,0-1.4.7l-6.9,9.17-1.518-7.8a1.743,1.743,0,0,0-.48-.9L56.882,75.907l1.341-7.6a1.749,1.749,0,0,0-.369-1.413L45.75,52.124V32.25A1.75,1.75,0,0,0,44,30.5H19.248a1.749,1.749,0,0,0-1.75,1.75V54.465l-3.947,5.8a1.742,1.742,0,0,0-.3,1.061l.921,20.767H10.75a1.751,1.751,0,0,0-1.739,1.552L6.055,109.58l-5.773,8.9a1.752,1.752,0,0,0-.282.952v6.811A1.75,1.75,0,0,0,1.75,128h124.5a1.75,1.75,0,0,0,1.75-1.75V17.5A1.753,1.753,0,0,0,127.348,16.137ZM3.5,119.954l5.2-8.016H28.875a1.75,1.75,0,0,0,0-3.5H9.708l2.6-22.844H26.877a1.75,1.75,0,0,0,0-3.5h-9.2l-.9-20.34,3.923-5.766A1.745,1.745,0,0,0,21,55V34H42.25V52.75a1.75,1.75,0,0,0,.4,1.109L54.637,68.487,53.277,76.2a1.746,1.746,0,0,0,.486,1.541L64.791,88.766,66.3,96.5H34.25a1.75,1.75,0,0,0,0,3.5H66.978l2.3,11.834a1.753,1.753,0,0,0,.322.722l5.646,7.467V124.5H3.5ZM78.75,124.5v-5.061a1.75,1.75,0,0,0-.354-1.055l-5.756-7.613-2.1-10.776L78.811,89H101.5a1.75,1.75,0,0,0,0-3.5h-12L96,64.371l6.688-1.433h9.566a1.75,1.75,0,0,0,0-3.5h-7.76l2.549-19.808h4.273a1.749,1.749,0,0,0,1.75-1.75V22.165L124.5,19.673V106.5H88.375a1.75,1.75,0,0,0,0,3.5H124.5v14.5Z"/><path d="M71.75,24.5A12.25,12.25,0,1,0,59.5,12.247,12.263,12.263,0,0,0,71.75,24.5Zm0-21A8.75,8.75,0,1,1,63,12.247,8.76,8.76,0,0,1,71.75,3.5Z"/><path d="M46.75,67.625A1.75,1.75,0,0,0,45,65.875H26.375a1.75,1.75,0,0,0,0,3.5H45A1.75,1.75,0,0,0,46.75,67.625Z"/><path d="M117.5,76a1.75,1.75,0,0,0-1.75-1.75h-15.5a1.75,1.75,0,0,0,0,3.5h15.5A1.75,1.75,0,0,0,117.5,76Z"/></g></svg>
